<svg width="25" height="25" viewBox="0 0 25 25" fill="none" xmlns="http://www.w3.org/2000/svg">
<path d="M13.6342 14.29L13.3442 14.59V12C13.3442 11.7348 13.2389 11.4805 13.0513 11.2929C12.8638 11.1054 12.6095 11 12.3442 11C12.079 11 11.8247 11.1054 11.6371 11.2929C11.4496 11.4805 11.3442 11.7348 11.3442 12V14.59L11.0542 14.29C10.8659 14.1017 10.6105 13.9959 10.3442 13.9959C10.0779 13.9959 9.82254 14.1017 9.63424 14.29C9.44593 14.4783 9.34015 14.7337 9.34015 15C9.34015 15.2663 9.44593 15.5217 9.63424 15.71L11.6342 17.71C11.7293 17.8011 11.8415 17.8724 11.9642 17.92C12.0839 17.9729 12.2134 18.0003 12.3442 18.0003C12.4751 18.0003 12.6045 17.9729 12.7242 17.92C12.847 17.8724 12.9591 17.8011 13.0542 17.71L15.0542 15.71C15.2425 15.5217 15.3483 15.2663 15.3483 15C15.3483 14.7337 15.2425 14.4783 15.0542 14.29C14.8659 14.1017 14.6105 13.9959 14.3442 13.9959C14.0779 13.9959 13.8225 14.1017 13.6342 14.29ZM19.3442 6.00002H13.0642L12.7442 5.00002C12.5368 4.41325 12.152 3.90553 11.6431 3.54718C11.1343 3.18884 10.5266 2.99762 9.90424 3.00002H5.34424C4.54859 3.00002 3.78553 3.31609 3.22292 3.8787C2.66031 4.44131 2.34424 5.20437 2.34424 6.00002V19C2.34424 19.7957 2.66031 20.5587 3.22292 21.1213C3.78553 21.684 4.54859 22 5.34424 22H19.3442C20.1399 22 20.903 21.684 21.4656 21.1213C22.0282 20.5587 22.3442 19.7957 22.3442 19V9.00002C22.3442 8.20437 22.0282 7.44131 21.4656 6.8787C20.903 6.31609 20.1399 6.00002 19.3442 6.00002ZM20.3442 19C20.3442 19.2652 20.2389 19.5196 20.0513 19.7071C19.8638 19.8947 19.6095 20 19.3442 20H5.34424C5.07902 20 4.82467 19.8947 4.63713 19.7071C4.4496 19.5196 4.34424 19.2652 4.34424 19V6.00002C4.34424 5.73481 4.4496 5.48045 4.63713 5.29292C4.82467 5.10538 5.07902 5.00002 5.34424 5.00002H9.90424C10.1139 4.99948 10.3184 5.06484 10.4889 5.18686C10.6593 5.30889 10.7872 5.4814 10.8542 5.68002L11.3942 7.32002C11.4613 7.51864 11.5891 7.69116 11.7596 7.81318C11.9301 7.9352 12.1346 8.00056 12.3442 8.00002H19.3442C19.6095 8.00002 19.8638 8.10538 20.0513 8.29292C20.2389 8.48045 20.3442 8.73481 20.3442 9.00002V19Z" fill="white"/>
</svg>
