<svg width="20" height="19" viewBox="0 0 20 19" fill="none" xmlns="http://www.w3.org/2000/svg">
<path d="M18.0917 16.063L15 13.1497C16.2001 11.7282 16.7813 9.92389 16.624 8.1078C16.4668 6.29172 15.5831 4.60189 14.1546 3.38578C12.7262 2.16967 10.8615 1.51972 8.94411 1.56956C7.02671 1.61941 5.20228 2.36526 3.84596 3.65376C2.48965 4.94226 1.70454 6.67547 1.65207 8.497C1.5996 10.3185 2.28377 12.0899 3.56388 13.447C4.844 14.804 6.62276 15.6435 8.53443 15.7929C10.4461 15.9423 12.3454 15.3902 13.8417 14.2501L16.9083 17.1634C16.9858 17.2376 17.078 17.2965 17.1795 17.3367C17.2811 17.3769 17.39 17.3976 17.5 17.3976C17.61 17.3976 17.7189 17.3769 17.8205 17.3367C17.922 17.2965 18.0142 17.2376 18.0917 17.1634C18.2419 17.0158 18.3258 16.8185 18.3258 16.6132C18.3258 16.4079 18.2419 16.2106 18.0917 16.063ZM9.16668 14.2501C8.01295 14.2501 6.88514 13.9251 5.92585 13.3162C4.96657 12.7072 4.21889 11.8418 3.77738 10.8291C3.33587 9.81654 3.22035 8.70229 3.44543 7.62732C3.67051 6.55234 4.22608 5.56491 5.04189 4.78989C5.8577 4.01487 6.8971 3.48708 8.02865 3.27326C9.16021 3.05943 10.3331 3.16917 11.399 3.58861C12.4649 4.00804 13.3759 4.71833 14.0169 5.62966C14.6579 6.54098 15 7.6124 15 8.70844C15 10.1782 14.3854 11.5877 13.2915 12.627C12.1975 13.6663 10.7138 14.2501 9.16668 14.2501Z" fill="#B4B3B3"/>
</svg>
