<svg width="16" height="16" viewBox="0 0 16 16" fill="none" xmlns="http://www.w3.org/2000/svg">
<path d="M8.86683 8.14671C9.22255 7.8388 9.50786 7.45796 9.70341 7.03006C9.89896 6.60215 10.0002 6.13718 10.0002 5.66671C10.0002 4.78265 9.64897 3.93481 9.02385 3.30968C8.39873 2.68456 7.55088 2.33337 6.66683 2.33337C5.78277 2.33337 4.93493 2.68456 4.30981 3.30968C3.68469 3.93481 3.3335 4.78265 3.3335 5.66671C3.33349 6.13718 3.4347 6.60215 3.63025 7.03006C3.8258 7.45796 4.11111 7.8388 4.46683 8.14671C3.53359 8.5693 2.74181 9.25173 2.18615 10.1124C1.63049 10.9731 1.33448 11.9756 1.3335 13C1.3335 13.1769 1.40373 13.3464 1.52876 13.4714C1.65378 13.5965 1.82335 13.6667 2.00016 13.6667C2.17697 13.6667 2.34654 13.5965 2.47157 13.4714C2.59659 13.3464 2.66683 13.1769 2.66683 13C2.66683 11.9392 3.08826 10.9218 3.8384 10.1716C4.58855 9.42147 5.60596 9.00004 6.66683 9.00004C7.7277 9.00004 8.74511 9.42147 9.49526 10.1716C10.2454 10.9218 10.6668 11.9392 10.6668 13C10.6668 13.1769 10.7371 13.3464 10.8621 13.4714C10.9871 13.5965 11.1567 13.6667 11.3335 13.6667C11.5103 13.6667 11.6799 13.5965 11.8049 13.4714C11.9299 13.3464 12.0002 13.1769 12.0002 13C11.9992 11.9756 11.7032 10.9731 11.1475 10.1124C10.5919 9.25173 9.80007 8.5693 8.86683 8.14671ZM6.66683 7.66671C6.27127 7.66671 5.88459 7.54941 5.55569 7.32965C5.22679 7.10988 4.97045 6.79753 4.81907 6.43207C4.6677 6.06662 4.62809 5.66449 4.70526 5.27653C4.78243 4.88856 4.97291 4.5322 5.25262 4.25249C5.53232 3.97279 5.88869 3.78231 6.27665 3.70514C6.66461 3.62797 7.06674 3.66757 7.4322 3.81895C7.79765 3.97032 8.11001 4.22667 8.32977 4.55557C8.54953 4.88447 8.66683 5.27114 8.66683 5.66671C8.66683 6.19714 8.45612 6.70585 8.08104 7.08092C7.70597 7.45599 7.19726 7.66671 6.66683 7.66671ZM14.4735 6.08671C14.4115 6.02422 14.3378 5.97463 14.2565 5.94078C14.1753 5.90693 14.0882 5.88951 14.0002 5.88951C13.9122 5.88951 13.825 5.90693 13.7438 5.94078C13.6625 5.97463 13.5888 6.02422 13.5268 6.08671L12.1935 7.42004L11.7802 7.00004C11.7182 6.93756 11.6445 6.88796 11.5632 6.85411C11.482 6.82027 11.3948 6.80284 11.3068 6.80284C11.2188 6.80284 11.1317 6.82027 11.0504 6.85411C10.9692 6.88796 10.8955 6.93756 10.8335 7.00004C10.7093 7.12495 10.6396 7.29392 10.6396 7.47004C10.6396 7.64616 10.7093 7.81513 10.8335 7.94004L11.7268 8.83337C11.8517 8.95754 12.0207 9.02724 12.1968 9.02724C12.373 9.02724 12.5419 8.95754 12.6668 8.83337L14.4468 7.05337C14.5141 6.99292 14.5684 6.9194 14.6064 6.83729C14.6444 6.75519 14.6653 6.6662 14.6678 6.57577C14.6703 6.48533 14.6543 6.39534 14.6209 6.31126C14.5875 6.22718 14.5374 6.15078 14.4735 6.08671Z" fill="black"/>
</svg>
