<svg width="29" height="29" viewBox="0 0 29 29" fill="none" xmlns="http://www.w3.org/2000/svg">
<g id="User Interface / Bell">
<path id="Vector" d="M21.3553 16.2343V12.5243C21.3536 10.8712 20.767 9.27213 19.6994 8.01015C18.6317 6.74818 17.1519 5.90475 15.522 5.62925V4.35758C15.522 4.04817 15.3991 3.75142 15.1803 3.53263C14.9615 3.31383 14.6647 3.19092 14.3553 3.19092C14.0459 3.19092 13.7491 3.31383 13.5303 3.53263C13.3116 3.75142 13.1886 4.04817 13.1886 4.35758V5.62925C11.5587 5.90475 10.0789 6.74818 9.01126 8.01015C7.94359 9.27213 7.35698 10.8712 7.35531 12.5243V16.2343C6.6745 16.4749 6.0848 16.9203 5.66707 17.5093C5.24933 18.0984 5.024 18.8021 5.02197 19.5243V21.8576C5.02197 22.167 5.14489 22.4638 5.36368 22.6825C5.58247 22.9013 5.87922 23.0243 6.18864 23.0243H9.85197C10.1206 24.0128 10.7071 24.8856 11.521 25.5078C12.3349 26.13 13.3309 26.4671 14.3553 26.4671C15.3798 26.4671 16.3757 26.13 17.1896 25.5078C18.0035 24.8856 18.59 24.0128 18.8586 23.0243H22.522C22.8314 23.0243 23.1281 22.9013 23.3469 22.6825C23.5657 22.4638 23.6886 22.167 23.6886 21.8576V19.5243C23.6866 18.8021 23.4613 18.0984 23.0435 17.5093C22.6258 16.9203 22.0361 16.4749 21.3553 16.2343ZM9.68864 12.5243C9.68864 11.2866 10.1803 10.0996 11.0555 9.22442C11.9306 8.34925 13.1176 7.85758 14.3553 7.85758C15.593 7.85758 16.78 8.34925 17.6551 9.22442C18.5303 10.0996 19.022 11.2866 19.022 12.5243V16.0243H9.68864V12.5243ZM14.3553 24.1909C13.9481 24.1885 13.5486 24.0795 13.1966 23.8748C12.8446 23.6701 12.5522 23.3769 12.3486 23.0243H16.362C16.1584 23.3769 15.866 23.6701 15.514 23.8748C15.162 24.0795 14.7625 24.1885 14.3553 24.1909ZM21.3553 20.6909H7.35531V19.5243C7.35531 19.2148 7.47822 18.9181 7.69702 18.6993C7.91581 18.4805 8.21255 18.3576 8.52197 18.3576H20.1886C20.4981 18.3576 20.7948 18.4805 21.0136 18.6993C21.2324 18.9181 21.3553 19.2148 21.3553 19.5243V20.6909Z" fill="#7E7E7E"/>
</g>
</svg>
