<svg width="199" height="199" viewBox="0 0 199 199" fill="none" xmlns="http://www.w3.org/2000/svg">
<path d="M165.61 110.427C161.459 110.427 159.2 110.03 155.385 109.145C153.95 108.809 153.157 108.29 152.668 106.398L150.593 95.929C150.593 95.929 151.356 95.6848 152.577 95.288C152.577 95.288 158.681 101.972 165.976 101.972C170.676 101.972 174.156 99.7442 174.247 96.692C174.308 94.9523 173.423 93.6704 167.868 90.252C159.658 85.2465 157.002 82.1333 156.789 77.0362C156.636 73.4041 157.918 70.1078 160.543 67.5135C163.473 64.5834 167.38 61.806 176.078 61.3176C176.475 61.2871 176.902 61.2871 177.33 61.2871C183.983 61.2871 189.447 64.2172 190.912 65.0718C190.912 65.0718 189.142 67.3304 187.371 69.2227C185.998 70.7183 183.404 73.0074 183.404 73.0074C182.335 71.9391 179.955 69.7416 176.262 69.7416C173.942 69.7416 172.05 70.9319 171.256 71.9086C170.585 72.7327 170.31 73.4957 170.34 74.3808C170.432 76.3037 171.561 77.6161 178.123 81.5839C184.869 85.7653 187.707 89.3974 187.89 94.464C188.073 98.737 185.998 102.979 182.335 105.879C179.008 108.595 174.583 110.06 168.784 110.366C167.716 110.396 166.647 110.427 165.61 110.427Z" fill="#C70068"/>
<path d="M30.5825 110.427C16.5121 110.427 7.75246 102.43 7.75246 89.5805C7.75246 82.2249 11.0793 75.266 17.092 69.9857C23.0132 64.7971 30.8572 61.867 38.9149 61.867C46.6673 61.867 53.1074 64.4308 55.2133 65.9264L49.6279 76.3953C49.6279 76.3953 45.3854 72.5495 38.335 72.5495C28.7207 72.5495 21.5482 79.0201 20.8767 88.2681C20.6325 91.6865 21.4566 94.464 23.3489 96.4784C25.4244 98.7064 28.6597 99.8968 32.6885 99.8968C36.3511 99.8968 41.3871 99.7137 47.6745 95.8985H50.2689C50.2689 95.8985 43.3405 106.734 42.9132 107.405C42.4859 107.985 41.7839 109.267 40.1663 109.633C39.6169 109.786 35.3744 110.579 30.5825 110.427Z" fill="#00326C"/>
<path d="M50.2994 95.929C50.2994 95.929 43.2184 107.008 42.9437 107.436L50.2994 95.929Z" fill="#003D85"/>
<path d="M139.483 62.508H129.228L110.213 91.9917C114.425 91.8696 118.698 91.6865 122.971 91.4118L129.991 79.4779L131.761 90.7098C136.095 90.313 140.399 89.8247 144.58 89.2448L139.483 62.508ZM144.733 90.1604C140.582 90.9845 136.309 91.656 132.005 92.2359L134.752 109.633H148.426L144.733 90.1604ZM98.8285 109.664H112.227L121.781 93.4262C117.325 93.8535 112.929 94.1893 108.656 94.4334L98.8285 109.664Z" fill="#00326C"/>
<path d="M87.3219 62.508H77.0667L46.6978 109.664H60.0663L68.8564 94.7386H68.7954C68.2765 94.3113 60.6462 87.9018 60.7377 87.9018C63.9425 88.787 67.5745 89.5195 71.5728 90.1299L77.8297 79.5084L79.661 91.1371C83.8425 91.5339 88.2986 91.8086 92.9073 91.9917L87.3219 62.508ZM93.4873 95.0133C88.6649 95.1049 84.2087 95.1049 80.2715 95.0744L82.5606 109.664H96.2647L93.4873 95.0133Z" fill="#00326C"/>
<mask id="mask0_1_911" style="mask-type:luminance" maskUnits="userSpaceOnUse" x="59" y="86" width="101" height="19">
<path d="M64.614 94.4334L59.5779 104.567C60.5546 104.567 60.1273 104.597 61.104 104.597C113.479 105.513 149.921 91.5949 159.231 87.383C158.986 87.1693 158.712 87.0472 158.498 86.8336C124.009 97.0583 72.8548 95.2575 64.614 94.4334Z" fill="white"/>
</mask>
<g mask="url(#mask0_1_911)">
<path d="M61.806 72.1222L162.008 87.2609L157.002 120.285L56.8004 105.116L61.806 72.1222Z" fill="url(#paint0_linear_1_911)"/>
</g>
<path d="M16.39 134.233C16.0238 134.386 15.1386 134.752 14.1314 134.752C12.2391 134.752 10.6825 133.562 10.6825 130.144C10.6825 127.824 11.4455 125.748 13.9483 125.748C15.7186 125.748 16.7258 126.786 16.7258 128.282H15.2607C15.2607 127.763 15.1081 126.756 13.8873 126.756C12.2696 126.756 12.0255 128.74 12.0255 129.93C12.0255 132.127 12.5443 133.715 14.3451 133.715C15.4133 133.715 16.1459 133.165 16.3595 133.043V134.233H16.39Z" fill="#00326C"/>
<path d="M17.794 125.901H19.137V127.183H17.794V125.901ZM17.9161 128.617H19.0454V134.63H17.9161V128.617Z" fill="#00326C"/>
<path d="M19.961 128.617H21.2124L22.769 132.982L24.173 128.617H25.4244L23.3489 134.63H22.2196L19.961 128.617Z" fill="#00326C"/>
<path d="M26.1874 125.901H27.5304V127.183H26.1874V125.901ZM26.3095 128.617H27.4388V134.63H26.3095V128.617Z" fill="#00326C"/>
<path d="M30.4604 125.901H29.3311V134.63H30.4604V125.901Z" fill="#00326C"/>
<path d="M36.6258 125.901H38.1518L41.1124 134.63H39.8L38.9454 132.127H35.8627L35.0081 134.63H33.6957L36.6258 125.901ZM36.1374 131.12H38.6097L37.4193 127.061H37.3888L36.1374 131.12Z" fill="#00326C"/>
<path d="M41.0819 128.617H42.3333L43.8593 132.982H43.8899L45.2939 128.617H46.5452L44.4698 134.63H43.31L41.0819 128.617Z" fill="#00326C"/>
<path d="M47.5524 125.901H48.8954V127.183H47.5524V125.901ZM47.6745 128.617H48.8038V134.63H47.6745V128.617Z" fill="#00326C"/>
<path d="M53.4431 133.898C53.26 134.233 52.8022 134.783 51.8865 134.783C50.7572 134.783 50.2078 134.111 50.2078 133.165C50.2078 131.578 51.9475 131.181 53.4736 131.181V130.144C53.3821 129.564 52.9853 129.381 52.558 129.381C51.8865 129.381 51.6118 129.808 51.6118 130.296H50.4215C50.4215 129.319 50.9709 128.495 52.6495 128.495C54.6029 128.495 54.6029 129.96 54.6029 130.51V134.63H53.4736V133.898H53.4431ZM53.2294 131.944C52.3443 131.944 51.4592 132.341 51.4592 133.104C51.4592 133.562 51.7644 133.867 52.1002 133.867C52.8632 133.867 53.4431 132.982 53.4431 132.25V131.914H53.2294V131.944Z" fill="#00326C"/>
<path d="M59.3337 134.691C59.059 134.752 58.7538 134.783 58.4486 134.783C57.0141 134.783 56.6478 134.142 56.6478 133.318V129.503H55.5796V128.617H56.6478V127.213L57.7771 126.511V128.617H59.4253V129.503H57.7771V132.707C57.7771 133.257 57.8382 133.867 58.7233 133.867C58.9369 133.867 59.1506 133.837 59.3337 133.776V134.691Z" fill="#00326C"/>
<path d="M60.3715 125.901H61.7144V127.183H60.3715V125.901ZM60.4935 128.617H61.6228V134.63H60.4935V128.617Z" fill="#00326C"/>
<path d="M62.9963 131.609C62.9963 129.686 63.8204 128.465 65.6212 128.465C67.4219 128.465 68.246 129.686 68.246 131.609C68.246 133.501 67.4219 134.752 65.6212 134.752C63.8204 134.752 62.9963 133.501 62.9963 131.609ZM65.6212 133.898C66.842 133.898 66.9946 132.585 66.9946 131.639C66.9946 130.662 66.842 129.381 65.6212 129.381C64.3698 129.381 64.2172 130.662 64.2172 131.639C64.2477 132.585 64.4003 133.898 65.6212 133.898Z" fill="#00326C"/>
<path d="M69.4669 128.617H70.5962V129.899H70.6267C70.8098 129.381 71.2982 128.465 72.519 128.465C73.8925 128.465 74.1061 129.716 74.1061 130.449V134.63H72.9768V131.334C72.9768 130.235 72.9768 129.594 72.1527 129.594C71.2371 129.594 70.5656 130.846 70.5656 132.066V134.63H69.4363V128.617H69.4669Z" fill="#00326C"/>
<path d="M79.8747 125.901H81.4008L84.3614 134.63H83.0489L82.1943 132.127H79.1117L78.2571 134.63H76.9446L79.8747 125.901ZM79.3864 131.12H81.8586L80.6683 127.061H80.6377L79.3864 131.12Z" fill="#00326C"/>
<path d="M88.8785 133.348C88.6649 133.867 88.1765 134.783 86.9557 134.783C85.5822 134.783 85.3686 133.531 85.3686 132.799V128.648H86.4978V131.944C86.4978 133.074 86.4979 133.684 87.3219 133.684C88.2376 133.684 88.909 132.433 88.909 131.212V128.648H90.0383V134.661H88.909V133.348H88.8785Z" fill="#00326C"/>
<path d="M94.8913 134.691C94.6166 134.752 94.3113 134.783 94.0061 134.783C92.5716 134.783 92.2054 134.142 92.2054 133.318V129.503H91.1371V128.617H92.2054V127.213L93.3347 126.511V128.617H94.9828V129.503H93.3347V132.707C93.3347 133.257 93.3957 133.867 94.2808 133.867C94.4945 133.867 94.7081 133.837 94.8913 133.776V134.691Z" fill="#00326C"/>
<path d="M96.1732 125.901H97.3025V129.899H97.333C97.5161 129.381 98.0045 128.465 99.2253 128.465C100.599 128.465 100.812 129.716 100.812 130.449V134.63H99.6831V131.334C99.6831 130.235 99.6831 129.594 98.859 129.594C97.9434 129.594 97.2719 130.846 97.2719 132.066V134.63H96.1426V125.901H96.1732Z" fill="#00326C"/>
<path d="M102.033 131.609C102.033 129.686 102.857 128.465 104.658 128.465C106.459 128.465 107.283 129.686 107.283 131.609C107.283 133.501 106.428 134.752 104.658 134.752C102.888 134.752 102.033 133.501 102.033 131.609ZM104.689 133.898C105.909 133.898 106.062 132.585 106.062 131.639C106.062 130.662 105.909 129.381 104.689 129.381C103.437 129.381 103.285 130.662 103.285 131.639C103.285 132.585 103.437 133.898 104.689 133.898Z" fill="#00326C"/>
<path d="M108.534 128.617H109.664V129.838H109.694C109.847 129.35 110.366 128.495 111.525 128.495V129.747C110.518 129.747 109.664 130.266 109.664 132.097V134.661H108.534V128.617Z" fill="#00326C"/>
<path d="M112.502 125.901H113.845V127.183H112.502V125.901ZM112.594 128.617H113.723V134.63H112.594V128.617Z" fill="#00326C"/>
<path d="M118.423 134.691C118.149 134.752 117.843 134.783 117.538 134.783C116.104 134.783 115.737 134.142 115.737 133.318V129.503H114.669V128.617H115.737V127.213L116.867 126.511V128.617H118.515V129.503H116.897V132.707C116.897 133.257 116.958 133.867 117.843 133.867C118.027 133.867 118.271 133.837 118.454 133.776V134.691H118.423Z" fill="#00326C"/>
<path d="M121.598 134.661L119.339 128.617H120.59L122.147 132.952H122.177L123.581 128.617H124.833L121.872 137.225H120.773L121.598 134.661Z" fill="#00326C"/>
<path d="M127.152 131.609C127.152 129.686 127.977 128.465 129.777 128.465C131.578 128.465 132.402 129.686 132.402 131.609C132.402 133.501 131.578 134.752 129.777 134.752C127.977 134.752 127.152 133.501 127.152 131.609ZM129.777 133.898C130.998 133.898 131.151 132.585 131.151 131.639C131.151 130.662 130.998 129.381 129.777 129.381C128.526 129.381 128.373 130.662 128.373 131.639C128.404 132.585 128.556 133.898 129.777 133.898Z" fill="#00326C"/>
<path d="M134.081 129.503H133.013V128.617H134.081V127.915C134.081 126.511 134.844 125.779 136.37 125.779C136.736 125.779 137.194 125.809 137.56 125.901V126.847C137.194 126.756 136.858 126.664 136.37 126.664C135.485 126.664 135.21 127.397 135.21 128.007V128.617H136.98V129.503H135.21V134.63H134.081V129.503Z" fill="#00326C"/>
<path d="M144.031 129.899C144.855 130.388 145.832 130.907 145.832 132.311C145.832 133.989 144.489 134.783 142.718 134.783C141.681 134.783 140.796 134.539 140.521 134.447V133.135C141.009 133.44 141.833 133.776 142.81 133.776C143.634 133.776 144.458 133.44 144.458 132.494C144.458 131.578 143.726 131.212 143.054 130.815L142.261 130.357C141.467 129.899 140.399 129.411 140.399 128.068C140.399 126.512 141.65 125.81 143.268 125.81C144.092 125.81 144.946 125.993 145.221 126.054V127.244C145.069 127.183 144.061 126.817 143.207 126.817C142.352 126.817 141.772 127.213 141.772 127.946C141.772 128.617 142.535 129.045 143.176 129.411L144.031 129.899Z" fill="#00326C"/>
<path d="M147.144 125.901H148.487V127.183H147.144V125.901ZM147.236 128.617H148.365V134.63H147.236V128.617Z" fill="#00326C"/>
<path d="M149.921 128.617H151.051V129.899H151.081C151.295 129.381 151.753 128.465 152.974 128.465C154.347 128.465 154.561 129.716 154.561 130.449V134.63H153.431V131.334C153.431 130.235 153.431 129.594 152.607 129.594C151.692 129.594 151.02 130.846 151.02 132.066V134.63H149.891V128.617H149.921Z" fill="#00326C"/>
<path d="M160.604 134.874C160.604 136.614 159.627 137.347 157.857 137.347C156.941 137.347 156.3 137.194 156.026 137.133V135.973C156.392 136.156 157.002 136.461 157.735 136.461C159.475 136.461 159.475 135.241 159.475 134.569V133.623H159.444C159.322 133.959 158.834 134.661 157.796 134.661C156.239 134.661 155.751 133.196 155.751 131.67C155.751 129.96 156.361 128.526 157.888 128.526C158.834 128.526 159.322 129.167 159.444 129.503H159.475V128.679H160.604V134.874ZM158.162 133.745C159.139 133.745 159.475 132.433 159.475 131.486C159.475 130.571 159.169 129.35 158.162 129.35C157.186 129.35 157.002 130.662 157.002 131.578C157.033 132.402 157.186 133.745 158.162 133.745Z" fill="#00326C"/>
<path d="M165.121 133.898C164.938 134.233 164.48 134.783 163.565 134.783C162.435 134.783 161.886 134.111 161.886 133.165C161.886 131.578 163.626 131.181 165.121 131.181V130.144C165.03 129.564 164.633 129.381 164.205 129.381C163.534 129.381 163.259 129.808 163.259 130.296H162.069C162.069 129.319 162.618 128.495 164.297 128.495C166.25 128.495 166.25 129.96 166.25 130.51V134.63H165.121V133.898ZM164.877 131.944C163.992 131.944 163.107 132.341 163.107 133.104C163.107 133.562 163.412 133.867 163.748 133.867C164.511 133.867 165.091 132.982 165.091 132.25V131.914H164.877V131.944Z" fill="#00326C"/>
<path d="M167.593 128.617H168.723V129.533H168.753C168.906 129.197 169.425 128.495 170.401 128.495C171.836 128.495 172.446 129.808 172.446 131.548C172.446 133.562 171.683 134.783 170.34 134.783C169.364 134.783 168.906 134.172 168.753 133.806H168.723V137.347H167.593V128.617ZM170.005 133.898C170.89 133.898 171.164 132.89 171.164 131.639C171.164 130.723 171.042 129.381 169.974 129.381C169.058 129.381 168.692 130.662 168.692 131.67C168.723 132.707 169.028 133.898 170.005 133.898Z" fill="#00326C"/>
<path d="M173.453 131.609C173.453 129.686 174.278 128.465 176.078 128.465C177.879 128.465 178.703 129.686 178.703 131.609C178.703 133.501 177.879 134.752 176.078 134.752C174.308 134.752 173.453 133.501 173.453 131.609ZM176.109 133.898C177.33 133.898 177.482 132.585 177.482 131.639C177.482 130.662 177.33 129.381 176.109 129.381C174.857 129.381 174.705 130.662 174.705 131.639C174.705 132.585 174.857 133.898 176.109 133.898Z" fill="#00326C"/>
<path d="M179.68 128.617H180.809V129.838H180.84C180.992 129.35 181.511 128.495 182.671 128.495V129.747C181.664 129.747 180.809 130.266 180.809 132.097V134.661H179.68V128.617Z" fill="#00326C"/>
<path d="M187.921 134.569C187.432 134.691 187.097 134.783 186.425 134.783C184.624 134.783 183.465 133.715 183.465 131.364C183.465 128.801 185.113 128.495 185.876 128.495C187.341 128.495 188.012 129.503 188.012 130.907V131.181H184.563C184.563 132.311 185.143 133.898 186.761 133.898C187.28 133.898 187.615 133.776 187.89 133.684V134.569H187.921ZM186.913 130.418C186.913 130.052 186.7 129.35 185.815 129.35C184.899 129.35 184.624 130.144 184.624 130.418H186.913Z" fill="#00326C"/>
<defs>
<linearGradient id="paint0_linear_1_911" x1="66.8287" y1="89.762" x2="88.1126" y2="92.9793" gradientUnits="userSpaceOnUse">
<stop stop-color="#00326C"/>
<stop offset="1" stop-color="#008FD3"/>
</linearGradient>
</defs>
</svg>
