<svg width="117" height="117" viewBox="0 0 117 117" fill="none" xmlns="http://www.w3.org/2000/svg">
<g id="civil-aviation-authority-of-singapore-caas-logo-vector 2">
<path id="Vector" d="M97.3684 64.9243C94.9279 64.9243 93.6 64.691 91.3569 64.1706C90.5135 63.9732 90.0469 63.6682 89.7598 62.5556L88.5396 56.4005C88.5396 56.4005 88.9882 56.257 89.706 56.0237C89.706 56.0237 93.2949 59.9536 97.5837 59.9536C100.347 59.9536 102.393 58.6436 102.447 56.8491C102.483 55.8263 101.962 55.0726 98.6963 53.0628C93.8692 50.1199 92.308 48.2895 92.1823 45.2927C92.0926 43.1573 92.8463 41.2192 94.3896 39.6939C96.1123 37.9712 98.4092 36.3383 103.523 36.0511C103.757 36.0332 104.008 36.0332 104.259 36.0332C108.171 36.0332 111.383 37.7559 112.245 38.2584C112.245 38.2584 111.204 39.5863 110.163 40.6988C109.356 41.5781 107.83 42.924 107.83 42.924C107.202 42.2959 105.802 41.0039 103.631 41.0039C102.267 41.0039 101.155 41.7038 100.688 42.278C100.293 42.7625 100.132 43.2111 100.15 43.7315C100.204 44.862 100.868 45.6337 104.726 47.9665C108.692 50.4249 110.36 52.5603 110.468 55.5392C110.576 58.0515 109.356 60.5458 107.202 62.2505C105.246 63.8476 102.644 64.709 99.2346 64.8884C98.6066 64.9064 97.9785 64.9243 97.3684 64.9243Z" fill="#C70068"/>
<path id="Vector_2" d="M17.9806 64.9242C9.70801 64.9242 4.55786 60.2226 4.55786 52.6679C4.55786 48.3432 6.51384 44.2518 10.049 41.1473C13.5303 38.0967 18.1421 36.374 22.8795 36.374C27.4375 36.374 31.2238 37.8814 32.462 38.7607L29.1781 44.9157C29.1781 44.9157 26.6838 42.6547 22.5385 42.6547C16.8859 42.6547 12.6689 46.459 12.2741 51.8963C12.1306 53.9061 12.6151 55.5391 13.7276 56.7234C14.9479 58.0334 16.85 58.7332 19.2188 58.7332C21.3721 58.7332 24.333 58.6256 28.0296 56.3825H29.5549C29.5549 56.3825 25.4815 62.7529 25.2303 63.1476C24.979 63.4886 24.5663 64.2423 23.6152 64.4576C23.2922 64.5473 20.7979 65.0139 17.9806 64.9242Z" fill="#00326C"/>
<path id="Vector_3" d="M29.573 56.4004C29.573 56.4004 25.4098 62.9143 25.2483 63.1656L29.573 56.4004Z" fill="#003D85"/>
<path id="Vector_4" d="M82.0077 36.751H75.9782L64.7986 54.0856C67.275 54.0139 69.7873 53.9062 72.2996 53.7447L76.4269 46.7283L77.4677 53.332C80.0158 53.0987 82.546 52.8116 85.0045 52.4706L82.0077 36.751ZM85.0942 53.009C82.6537 53.4935 80.1414 53.8882 77.6112 54.2292L79.2262 64.4577H87.2655L85.0942 53.009ZM58.1052 64.4757H65.983L71.5997 54.929C68.9798 55.1803 66.3957 55.3777 63.8834 55.5212L58.1052 64.4757Z" fill="#00326C"/>
<path id="Vector_5" d="M51.3401 36.751H45.3106L27.4556 64.4757H35.3154L40.4835 55.7007H40.4476C40.1425 55.4494 35.6563 51.681 35.7102 51.681C37.5944 52.2014 39.7298 52.6321 42.0806 52.991L45.7592 46.7462L46.8359 53.5832C49.2944 53.8165 51.9143 53.978 54.624 54.0856L51.3401 36.751ZM54.9649 55.8622C52.1296 55.916 49.5097 55.916 47.1948 55.8981L48.5407 64.4757H56.5979L54.9649 55.8622Z" fill="#00326C"/>
<g id="Group">
<g id="Clip path group">
<mask id="mask0_2130_5987" style="mask-type:luminance" maskUnits="userSpaceOnUse" x="35" y="51" width="59" height="11">
<g id="SVGID_2_">
<path id="Vector_6" d="M37.9892 55.521L35.0283 61.4787C35.6026 61.4787 35.3513 61.4966 35.9256 61.4966C66.7188 62.0349 88.1449 53.8521 93.618 51.3757C93.4745 51.2501 93.313 51.1783 93.1874 51.0527C72.9098 57.0642 42.8343 56.0055 37.9892 55.521Z" fill="white"/>
</g>
</mask>
<g mask="url(#mask0_2130_5987)">
<path id="Vector_7" d="M36.3382 42.4033L95.2509 51.3039L92.308 70.7202L33.3953 61.8016L36.3382 42.4033Z" fill="url(#paint0_linear_2130_5987)"/>
</g>
</g>
</g>
<g id="Group_2">
<path id="Vector_8" d="M9.63644 78.9213C9.4211 79.011 8.9007 79.2263 8.30852 79.2263C7.19595 79.2263 6.28076 78.5265 6.28076 76.5167C6.28076 75.1529 6.72938 73.9326 8.20085 73.9326C9.24165 73.9326 9.83383 74.5427 9.83383 75.422H8.97248C8.97248 75.117 8.88276 74.5248 8.16496 74.5248C7.21389 74.5248 7.07033 75.6912 7.07033 76.3911C7.07033 77.6831 7.37539 78.6162 8.43414 78.6162C9.0622 78.6162 9.49288 78.2932 9.61849 78.2214V78.9213H9.63644Z" fill="#00326C"/>
<path id="Vector_9" d="M10.4619 74.0225H11.2515V74.7761H10.4619V74.0225ZM10.5337 75.6195H11.1977V79.1547H10.5337V75.6195Z" fill="#00326C"/>
<path id="Vector_10" d="M11.7361 75.6196H12.4718L13.387 78.1857L14.2125 75.6196H14.9482L13.728 79.1548H13.064L11.7361 75.6196Z" fill="#00326C"/>
<path id="Vector_11" d="M15.3967 74.0225H16.1863V74.7761H15.3967V74.0225ZM15.4685 75.6195H16.1325V79.1547H15.4685V75.6195Z" fill="#00326C"/>
<path id="Vector_12" d="M17.9091 74.0225H17.2451V79.1547H17.9091V74.0225Z" fill="#00326C"/>
<path id="Vector_13" d="M21.5337 74.0225H22.431L24.1716 79.1547H23.4L22.8975 77.6832H21.0851L20.5827 79.1547H19.811L21.5337 74.0225ZM21.2466 77.091H22.7001L22.0003 74.7044H21.9824L21.2466 77.091Z" fill="#00326C"/>
<path id="Vector_14" d="M24.1538 75.6196H24.8895L25.7868 78.1857H25.8047L26.6302 75.6196H27.3659L26.1457 79.1548H25.4638L24.1538 75.6196Z" fill="#00326C"/>
<path id="Vector_15" d="M27.958 74.0225H28.7476V74.7761H27.958V74.0225ZM28.0298 75.6195H28.6937V79.1547H28.0298V75.6195Z" fill="#00326C"/>
<path id="Vector_16" d="M31.4214 78.7241C31.3138 78.9215 31.0446 79.2445 30.5063 79.2445C29.8423 79.2445 29.5193 78.8497 29.5193 78.2934C29.5193 77.3603 30.5421 77.127 31.4394 77.127V76.5169C31.3855 76.1759 31.1523 76.0682 30.901 76.0682C30.5062 76.0682 30.3447 76.3195 30.3447 76.6066H29.6449C29.6449 76.0324 29.9679 75.5479 30.9549 75.5479C32.1033 75.5479 32.1033 76.4092 32.1033 76.7322V79.1548H31.4394V78.7241H31.4214ZM31.2958 77.5756C30.7754 77.5756 30.255 77.8089 30.255 78.2575C30.255 78.5267 30.4345 78.7061 30.6319 78.7061C31.0805 78.7061 31.4214 78.1857 31.4214 77.7551V77.5577H31.2958V77.5756Z" fill="#00326C"/>
<path id="Vector_17" d="M34.8847 79.1905C34.7232 79.2264 34.5437 79.2444 34.3643 79.2444C33.5209 79.2444 33.3056 78.8675 33.3056 78.383V76.1399H32.6775V75.6195H33.3056V74.7941L33.9695 74.3813V75.6195H34.9385V76.1399H33.9695V78.0241C33.9695 78.3471 34.0054 78.706 34.5258 78.706C34.6514 78.706 34.777 78.6881 34.8847 78.6522V79.1905Z" fill="#00326C"/>
<path id="Vector_18" d="M35.4949 74.0225H36.2844V74.7761H35.4949V74.0225ZM35.5667 75.6195H36.2306V79.1547H35.5667V75.6195Z" fill="#00326C"/>
<path id="Vector_19" d="M37.0381 77.3781C37.0381 76.2476 37.5226 75.5298 38.5813 75.5298C39.6401 75.5298 40.1246 76.2476 40.1246 77.3781C40.1246 78.4907 39.6401 79.2264 38.5813 79.2264C37.5226 79.2264 37.0381 78.4907 37.0381 77.3781ZM38.5813 78.724C39.2991 78.724 39.3889 77.9523 39.3889 77.396C39.3889 76.8218 39.2991 76.0681 38.5813 76.0681C37.8456 76.0681 37.7559 76.8218 37.7559 77.396C37.7738 77.9523 37.8635 78.724 38.5813 78.724Z" fill="#00326C"/>
<path id="Vector_20" d="M40.8424 75.6195H41.5064V76.3732H41.5243C41.632 76.0681 41.9191 75.5298 42.6369 75.5298C43.4444 75.5298 43.57 76.2655 43.57 76.6962V79.1546H42.9061V77.2166C42.9061 76.5706 42.9061 76.1937 42.4215 76.1937C41.8832 76.1937 41.4884 76.9295 41.4884 77.6473V79.1546H40.8245V75.6195H40.8424Z" fill="#00326C"/>
<path id="Vector_21" d="M46.9615 74.0225H47.8587L49.5994 79.1547H48.8277L48.3253 77.6832H46.5129L46.0104 79.1547H45.2388L46.9615 74.0225ZM46.6744 77.091H48.1279L47.428 74.7044H47.4101L46.6744 77.091Z" fill="#00326C"/>
<path id="Vector_22" d="M52.2553 78.4007C52.1297 78.7058 51.8426 79.2441 51.1248 79.2441C50.3173 79.2441 50.1917 78.5084 50.1917 78.0777V75.6372H50.8556V77.5752C50.8556 78.2392 50.8556 78.5981 51.3401 78.5981C51.8785 78.5981 52.2732 77.8624 52.2732 77.1446V75.6372H52.9372V79.1723H52.2732V78.4007H52.2553Z" fill="#00326C"/>
<path id="Vector_23" d="M55.7905 79.1905C55.629 79.2264 55.4495 79.2444 55.2701 79.2444C54.4267 79.2444 54.2113 78.8675 54.2113 78.383V76.1399H53.5833V75.6195H54.2113V74.7941L54.8753 74.3813V75.6195H55.8443V76.1399H54.8753V78.0241C54.8753 78.3471 54.9112 78.706 55.4316 78.706C55.5572 78.706 55.6828 78.6881 55.7905 78.6522V79.1905Z" fill="#00326C"/>
<path id="Vector_24" d="M56.5441 74.0225H57.208V76.3732H57.226C57.3336 76.0682 57.6208 75.5298 58.3385 75.5298C59.1461 75.5298 59.2717 76.2656 59.2717 76.6962V79.1547H58.6077V77.2166C58.6077 76.5706 58.6077 76.1938 58.1232 76.1938C57.5849 76.1938 57.1901 76.9295 57.1901 77.6473V79.1547H56.5261V74.0225H56.5441Z" fill="#00326C"/>
<path id="Vector_25" d="M59.9895 77.3781C59.9895 76.2476 60.474 75.5298 61.5328 75.5298C62.5915 75.5298 63.076 76.2476 63.076 77.3781C63.076 78.4907 62.5736 79.2264 61.5328 79.2264C60.492 79.2264 59.9895 78.4907 59.9895 77.3781ZM61.5507 78.724C62.2685 78.724 62.3582 77.9523 62.3582 77.396C62.3582 76.8218 62.2685 76.0681 61.5507 76.0681C60.815 76.0681 60.7252 76.8218 60.7252 77.396C60.7252 77.9523 60.815 78.724 61.5507 78.724Z" fill="#00326C"/>
<path id="Vector_26" d="M63.8118 75.6196H64.4757V76.3374H64.4937C64.5834 76.0503 64.8885 75.5479 65.5704 75.5479V76.2836C64.9782 76.2836 64.4757 76.5886 64.4757 77.6653V79.1727H63.8118V75.6196Z" fill="#00326C"/>
<path id="Vector_27" d="M66.1445 74.0225H66.9341V74.7761H66.1445V74.0225ZM66.1984 75.6195H66.8623V79.1547H66.1984V75.6195Z" fill="#00326C"/>
<path id="Vector_28" d="M69.6259 79.1905C69.4644 79.2264 69.285 79.2444 69.1055 79.2444C68.2621 79.2444 68.0468 78.8675 68.0468 78.383V76.1399H67.4187V75.6195H68.0468V74.7941L68.7107 74.3813V75.6195H69.6797V76.1399H68.7287V78.0241C68.7287 78.3471 68.7646 78.706 69.285 78.706C69.3926 78.706 69.5362 78.6881 69.6439 78.6522V79.1905H69.6259Z" fill="#00326C"/>
<path id="Vector_29" d="M71.4922 79.1727L70.1643 75.6196H70.9L71.8152 78.1678H71.8332L72.6586 75.6196H73.3944L71.6537 80.6801H71.0077L71.4922 79.1727Z" fill="#00326C"/>
<path id="Vector_30" d="M74.7581 77.3781C74.7581 76.2476 75.2426 75.5298 76.3013 75.5298C77.3601 75.5298 77.8446 76.2476 77.8446 77.3781C77.8446 78.4907 77.3601 79.2264 76.3013 79.2264C75.2426 79.2264 74.7581 78.4907 74.7581 77.3781ZM76.3013 78.724C77.0191 78.724 77.1088 77.9523 77.1088 77.396C77.1088 76.8218 77.0191 76.0681 76.3013 76.0681C75.5656 76.0681 75.4758 76.8218 75.4758 77.396C75.4938 77.9523 75.5835 78.724 76.3013 78.724Z" fill="#00326C"/>
<path id="Vector_31" d="M78.8314 76.1399H78.2034V75.6195H78.8314V75.2068C78.8314 74.3814 79.2801 73.9507 80.1773 73.9507C80.3926 73.9507 80.6618 73.9686 80.8771 74.0225V74.5788C80.6618 74.5249 80.4644 74.4711 80.1773 74.4711C79.6569 74.4711 79.4954 74.9018 79.4954 75.2607V75.6195H80.5362V76.1399H79.4954V79.1547H78.8314V76.1399Z" fill="#00326C"/>
<path id="Vector_32" d="M84.6816 76.3733C85.1661 76.6605 85.7403 76.9655 85.7403 77.791C85.7403 78.7779 84.9507 79.2445 83.9099 79.2445C83.2998 79.2445 82.7794 79.101 82.6179 79.0471V78.2755C82.905 78.4549 83.3895 78.6523 83.9638 78.6523C84.4483 78.6523 84.9328 78.4549 84.9328 77.8987C84.9328 77.3603 84.5021 77.145 84.1073 76.9117L83.6408 76.6425C83.1742 76.3733 82.5461 76.0862 82.5461 75.2967C82.5461 74.3815 83.2819 73.9688 84.233 73.9688C84.7175 73.9688 85.2199 74.0764 85.3814 74.1123V74.8122C85.2917 74.7763 84.6995 74.5609 84.1971 74.5609C83.6946 74.5609 83.3537 74.7942 83.3537 75.2249C83.3537 75.6197 83.8023 75.8709 84.1791 76.0862L84.6816 76.3733Z" fill="#00326C"/>
<path id="Vector_33" d="M86.512 74.0225H87.3015V74.7761H86.512V74.0225ZM86.5658 75.6195H87.2298V79.1547H86.5658V75.6195Z" fill="#00326C"/>
<path id="Vector_34" d="M88.1449 75.6195H88.8089V76.3732H88.8268C88.9524 76.0681 89.2216 75.5298 89.9394 75.5298C90.7469 75.5298 90.8725 76.2655 90.8725 76.6962V79.1546H90.2085V77.2166C90.2085 76.5706 90.2085 76.1937 89.724 76.1937C89.1857 76.1937 88.7909 76.9295 88.7909 77.6473V79.1546H88.127V75.6195H88.1449Z" fill="#00326C"/>
<path id="Vector_35" d="M94.4255 79.2979C94.4255 80.3208 93.8513 80.7515 92.8105 80.7515C92.2721 80.7515 91.8953 80.6617 91.7338 80.6259V79.944C91.9491 80.0516 92.308 80.2311 92.7387 80.2311C93.7615 80.2311 93.7615 79.5133 93.7615 79.1185V78.5622H93.7436C93.6718 78.7596 93.3847 79.1723 92.7746 79.1723C91.8594 79.1723 91.5723 78.311 91.5723 77.4137C91.5723 76.4088 91.9312 75.5654 92.8284 75.5654C93.3847 75.5654 93.6718 75.9423 93.7436 76.1397H93.7615V75.6552H94.4255V79.2979ZM92.9899 78.634C93.5641 78.634 93.7615 77.8624 93.7615 77.3061C93.7615 76.7677 93.5821 76.0499 92.9899 76.0499C92.4157 76.0499 92.308 76.8216 92.308 77.3599C92.326 77.8444 92.4157 78.634 92.9899 78.634Z" fill="#00326C"/>
<path id="Vector_36" d="M97.0813 78.7241C96.9737 78.9215 96.7045 79.2445 96.1662 79.2445C95.5022 79.2445 95.1792 78.8497 95.1792 78.2934C95.1792 77.3603 96.202 77.127 97.0813 77.127V76.5169C97.0275 76.1759 96.7942 76.0682 96.543 76.0682C96.1482 76.0682 95.9867 76.3195 95.9867 76.6066H95.2869C95.2869 76.0324 95.6099 75.5479 96.5968 75.5479C97.7453 75.5479 97.7453 76.4092 97.7453 76.7322V79.1548H97.0813V78.7241ZM96.9378 77.5756C96.4174 77.5756 95.897 77.8089 95.897 78.2575C95.897 78.5267 96.0764 78.7061 96.2738 78.7061C96.7224 78.7061 97.0634 78.1857 97.0634 77.7551V77.5577H96.9378V77.5756Z" fill="#00326C"/>
<path id="Vector_37" d="M98.5349 75.6196H99.1989V76.158H99.2168C99.3065 75.9606 99.6116 75.5479 100.186 75.5479C101.029 75.5479 101.388 76.3195 101.388 77.3423C101.388 78.5267 100.94 79.2445 100.15 79.2445C99.5757 79.2445 99.3065 78.8856 99.2168 78.6702H99.1989V80.7518H98.5349V75.6196ZM99.9526 78.7241C100.473 78.7241 100.634 78.1319 100.634 77.3962C100.634 76.8578 100.563 76.0682 99.9346 76.0682C99.3963 76.0682 99.1809 76.8219 99.1809 77.4141C99.1989 78.0242 99.3783 78.7241 99.9526 78.7241Z" fill="#00326C"/>
<path id="Vector_38" d="M101.98 77.3781C101.98 76.2476 102.465 75.5298 103.523 75.5298C104.582 75.5298 105.067 76.2476 105.067 77.3781C105.067 78.4907 104.582 79.2264 103.523 79.2264C102.483 79.2264 101.98 78.4907 101.98 77.3781ZM103.541 78.724C104.259 78.724 104.349 77.9523 104.349 77.396C104.349 76.8218 104.259 76.0681 103.541 76.0681C102.806 76.0681 102.716 76.8218 102.716 77.396C102.716 77.9523 102.806 78.724 103.541 78.724Z" fill="#00326C"/>
<path id="Vector_39" d="M105.641 75.6196H106.305V76.3374H106.323C106.413 76.0503 106.718 75.5479 107.4 75.5479V76.2836C106.808 76.2836 106.305 76.5886 106.305 77.6653V79.1727H105.641V75.6196Z" fill="#00326C"/>
<path id="Vector_40" d="M110.486 79.1189C110.199 79.1906 110.002 79.2445 109.607 79.2445C108.548 79.2445 107.866 78.6164 107.866 77.2347C107.866 75.7273 108.835 75.5479 109.284 75.5479C110.145 75.5479 110.54 76.14 110.54 76.9655V77.127H108.512C108.512 77.7909 108.853 78.7241 109.804 78.7241C110.109 78.7241 110.307 78.6523 110.468 78.5985V79.1189H110.486ZM109.894 76.6784C109.894 76.463 109.768 76.0503 109.248 76.0503C108.71 76.0503 108.548 76.5169 108.548 76.6784H109.894Z" fill="#00326C"/>
</g>
</g>
<defs>
<linearGradient id="paint0_linear_2130_5987" x1="39.2913" y1="52.7744" x2="51.8049" y2="54.666" gradientUnits="userSpaceOnUse">
<stop stop-color="#00326C"/>
<stop offset="1" stop-color="#008FD3"/>
</linearGradient>
</defs>
</svg>
