<svg width="14" height="9" viewBox="0 0 14 9" fill="none" xmlns="http://www.w3.org/2000/svg">
<path id="Vector" d="M7.5835 8.20722L13.2335 2.54722C13.3272 2.45426 13.4016 2.34365 13.4524 2.2218C13.5032 2.09994 13.5293 1.96923 13.5293 1.83722C13.5293 1.70521 13.5032 1.5745 13.4524 1.45264C13.4016 1.33078 13.3272 1.22018 13.2335 1.12722C13.0461 0.940967 12.7927 0.836426 12.5285 0.836426C12.2643 0.836426 12.0109 0.940967 11.8235 1.12722L6.8235 6.07722L1.8735 1.12722C1.68614 0.940967 1.43268 0.836426 1.1685 0.836426C0.904313 0.836426 0.650862 0.940967 0.463499 1.12722C0.369011 1.21983 0.293841 1.33028 0.242344 1.45215C0.190847 1.57403 0.164049 1.70491 0.1635 1.83722C0.164049 1.96953 0.190847 2.10041 0.242344 2.22228C0.293841 2.34416 0.369011 2.4546 0.463499 2.54722L6.1135 8.20722C6.20714 8.30872 6.32079 8.38973 6.44729 8.44514C6.57379 8.50055 6.7104 8.52915 6.8485 8.52915C6.9866 8.52915 7.12321 8.50055 7.2497 8.44514C7.3762 8.38973 7.48986 8.30872 7.5835 8.20722V8.20722Z" fill="black"/>
</svg>
