<svg width="28" height="28" viewBox="0 0 28 28" fill="none" xmlns="http://www.w3.org/2000/svg">
<g id="Arrows / right arrow">
<path id="Vector" d="M14.8284 18.13L21.42 11.5267C21.5294 11.4182 21.6162 11.2892 21.6754 11.147C21.7346 11.0049 21.7651 10.8524 21.7651 10.6984C21.7651 10.5443 21.7346 10.3918 21.6754 10.2497C21.6162 10.1075 21.5294 9.97848 21.42 9.87002C21.2014 9.65273 20.9058 9.53076 20.5975 9.53076C20.2893 9.53076 19.9936 9.65273 19.775 9.87002L13.9417 15.645L8.16671 9.87002C7.94812 9.65273 7.65242 9.53076 7.34421 9.53076C7.03599 9.53076 6.7403 9.65273 6.52171 9.87002C6.41147 9.97807 6.32377 10.1069 6.26369 10.2491C6.20361 10.3913 6.17235 10.544 6.17171 10.6984C6.17235 10.8527 6.20361 11.0054 6.26369 11.1476C6.32377 11.2898 6.41147 11.4186 6.52171 11.5267L13.1134 18.13C13.2226 18.2484 13.3552 18.343 13.5028 18.4076C13.6504 18.4722 13.8098 18.5056 13.9709 18.5056C14.132 18.5056 14.2914 18.4722 14.4389 18.4076C14.5865 18.343 14.7191 18.2484 14.8284 18.13Z" fill="black"/>
</g>
</svg>
