<svg width="31" height="31" viewBox="0 0 31 31" fill="none" xmlns="http://www.w3.org/2000/svg">
<circle cx="15.5" cy="15.5" r="15.35" fill="#E8E8E8" stroke="#7E7E7E" stroke-width="0.3"/>
<path d="M21.3333 12.0002H18.6667V11.3335C18.6667 10.8031 18.456 10.2944 18.0809 9.91928C17.7058 9.54421 17.1971 9.3335 16.6667 9.3335H15.3333C14.8029 9.3335 14.2942 9.54421 13.9191 9.91928C13.544 10.2944 13.3333 10.8031 13.3333 11.3335V12.0002H10.6667C10.4899 12.0002 10.3203 12.0704 10.1953 12.1954C10.0702 12.3204 10 12.49 10 12.6668C10 12.8436 10.0702 13.0132 10.1953 13.1382C10.3203 13.2633 10.4899 13.3335 10.6667 13.3335H11.3333V20.6668C11.3333 21.1973 11.544 21.706 11.9191 22.081C12.2942 22.4561 12.8029 22.6668 13.3333 22.6668H18.6667C19.1971 22.6668 19.7058 22.4561 20.0809 22.081C20.456 21.706 20.6667 21.1973 20.6667 20.6668V13.3335H21.3333C21.5101 13.3335 21.6797 13.2633 21.8047 13.1382C21.9298 13.0132 22 12.8436 22 12.6668C22 12.49 21.9298 12.3204 21.8047 12.1954C21.6797 12.0704 21.5101 12.0002 21.3333 12.0002ZM14.6667 11.3335C14.6667 11.1567 14.7369 10.9871 14.8619 10.8621C14.987 10.7371 15.1565 10.6668 15.3333 10.6668H16.6667C16.8435 10.6668 17.013 10.7371 17.1381 10.8621C17.2631 10.9871 17.3333 11.1567 17.3333 11.3335V12.0002H14.6667V11.3335ZM19.3333 20.6668C19.3333 20.8436 19.2631 21.0132 19.1381 21.1382C19.013 21.2633 18.8435 21.3335 18.6667 21.3335H13.3333C13.1565 21.3335 12.987 21.2633 12.8619 21.1382C12.7369 21.0132 12.6667 20.8436 12.6667 20.6668V13.3335H19.3333V20.6668Z" fill="black"/>
</svg>
