<svg width="19" height="19" viewBox="0 0 19 19" fill="none" xmlns="http://www.w3.org/2000/svg">
<g id="User Interface / Menu">
<path id="Vector" d="M9.5 8C9.20333 8 8.91332 8.08797 8.66665 8.2528C8.41997 8.41762 8.22771 8.65189 8.11418 8.92598C8.00065 9.20006 7.97094 9.50166 8.02882 9.79264C8.0867 10.0836 8.22956 10.3509 8.43934 10.5607C8.64912 10.7704 8.91639 10.9133 9.20737 10.9712C9.49834 11.0291 9.79994 10.9994 10.074 10.8858C10.3481 10.7723 10.5824 10.58 10.7472 10.3334C10.912 10.0867 11 9.79667 11 9.5C11 9.10218 10.842 8.72064 10.5607 8.43934C10.2794 8.15804 9.89783 8 9.5 8ZM4.25 8C3.95333 8 3.66332 8.08797 3.41665 8.2528C3.16997 8.41762 2.97771 8.65189 2.86418 8.92598C2.75065 9.20006 2.72094 9.50166 2.77882 9.79264C2.8367 10.0836 2.97956 10.3509 3.18934 10.5607C3.39912 10.7704 3.66639 10.9133 3.95737 10.9712C4.24834 11.0291 4.54994 10.9994 4.82403 10.8858C5.09812 10.7723 5.33238 10.58 5.49721 10.3334C5.66203 10.0867 5.75 9.79667 5.75 9.5C5.75 9.10218 5.59197 8.72064 5.31066 8.43934C5.02936 8.15804 4.64783 8 4.25 8ZM14.75 8C14.4533 8 14.1633 8.08797 13.9166 8.2528C13.67 8.41762 13.4777 8.65189 13.3642 8.92598C13.2506 9.20006 13.2209 9.50166 13.2788 9.79264C13.3367 10.0836 13.4796 10.3509 13.6893 10.5607C13.8991 10.7704 14.1664 10.9133 14.4574 10.9712C14.7483 11.0291 15.0499 10.9994 15.324 10.8858C15.5981 10.7723 15.8324 10.58 15.9972 10.3334C16.162 10.0867 16.25 9.79667 16.25 9.5C16.25 9.10218 16.092 8.72064 15.8107 8.43934C15.5294 8.15804 15.1478 8 14.75 8Z" fill="black"/>
</g>
</svg>
