<svg width="21" height="19" viewBox="0 0 21 19" fill="none" xmlns="http://www.w3.org/2000/svg">
<path d="M11.6342 11.29L11.3442 11.59V9.00002C11.3442 8.73481 11.2389 8.48045 11.0513 8.29292C10.8638 8.10538 10.6095 8.00002 10.3442 8.00002C10.079 8.00002 9.82467 8.10538 9.63713 8.29292C9.4496 8.48045 9.34424 8.73481 9.34424 9.00002V11.59L9.05424 11.29C8.86593 11.1017 8.61054 10.9959 8.34424 10.9959C8.07794 10.9959 7.82254 11.1017 7.63424 11.29C7.44593 11.4783 7.34015 11.7337 7.34015 12C7.34015 12.2663 7.44593 12.5217 7.63424 12.71L9.63424 14.71C9.72934 14.8011 9.84149 14.8724 9.96424 14.92C10.0839 14.9729 10.2134 15.0003 10.3442 15.0003C10.4751 15.0003 10.6045 14.9729 10.7242 14.92C10.847 14.8724 10.9591 14.8011 11.0542 14.71L13.0542 12.71C13.2425 12.5217 13.3483 12.2663 13.3483 12C13.3483 11.7337 13.2425 11.4783 13.0542 11.29C12.8659 11.1017 12.6105 10.9959 12.3442 10.9959C12.0779 10.9959 11.8225 11.1017 11.6342 11.29ZM17.3442 3.00002H11.0642L10.7442 2.00002C10.5368 1.41325 10.152 0.905526 9.64314 0.547183C9.13429 0.188841 8.5266 -0.0023769 7.90424 2.23036e-05H3.34424C2.54859 2.23036e-05 1.78553 0.316093 1.22292 0.878702C0.660309 1.44131 0.344238 2.20437 0.344238 3.00002V16C0.344238 16.7957 0.660309 17.5587 1.22292 18.1213C1.78553 18.684 2.54859 19 3.34424 19H17.3442C18.1399 19 18.903 18.684 19.4656 18.1213C20.0282 17.5587 20.3442 16.7957 20.3442 16V6.00002C20.3442 5.20437 20.0282 4.44131 19.4656 3.8787C18.903 3.31609 18.1399 3.00002 17.3442 3.00002ZM18.3442 16C18.3442 16.2652 18.2389 16.5196 18.0513 16.7071C17.8638 16.8947 17.6095 17 17.3442 17H3.34424C3.07902 17 2.82467 16.8947 2.63713 16.7071C2.4496 16.5196 2.34424 16.2652 2.34424 16V3.00002C2.34424 2.73481 2.4496 2.48045 2.63713 2.29292C2.82467 2.10538 3.07902 2.00002 3.34424 2.00002H7.90424C8.11388 1.99948 8.31839 2.06484 8.48887 2.18686C8.65934 2.30889 8.78715 2.4814 8.85424 2.68002L9.39424 4.32002C9.46132 4.51864 9.58914 4.69116 9.75961 4.81318C9.93008 4.9352 10.1346 5.00056 10.3442 5.00002H17.3442C17.6095 5.00002 17.8638 5.10538 18.0513 5.29292C18.2389 5.48045 18.3442 5.73481 18.3442 6.00002V16Z" fill="white"/>
</svg>
