<svg width="37" height="37" viewBox="0 0 37 37" fill="none" xmlns="http://www.w3.org/2000/svg">
<g id="Content / left alignment" clip-path="url(#clip0_2130_6032)">
<g id="Vector" filter="url(#filter0_d_2130_6032)">
<path d="M20.0416 24.6667H4.62492C4.21604 24.6667 3.82391 24.8291 3.5348 25.1182C3.24568 25.4073 3.08325 25.7995 3.08325 26.2083C3.08325 26.6172 3.24568 27.0093 3.5348 27.2985C3.82391 27.5876 4.21604 27.75 4.62492 27.75H20.0416C20.4505 27.75 20.8426 27.5876 21.1317 27.2985C21.4208 27.0093 21.5833 26.6172 21.5833 26.2083C21.5833 25.7995 21.4208 25.4073 21.1317 25.1182C20.8426 24.8291 20.4505 24.6667 20.0416 24.6667ZM4.62492 12.3333H32.3749C32.7838 12.3333 33.1759 12.1709 33.465 11.8818C33.7542 11.5927 33.9166 11.2005 33.9166 10.7917C33.9166 10.3828 33.7542 9.99066 33.465 9.70154C33.1759 9.41243 32.7838 9.25 32.3749 9.25H4.62492C4.21604 9.25 3.82391 9.41243 3.5348 9.70154C3.24568 9.99066 3.08325 10.3828 3.08325 10.7917C3.08325 11.2005 3.24568 11.5927 3.5348 11.8818C3.82391 12.1709 4.21604 12.3333 4.62492 12.3333ZM32.3749 16.9583H4.62492C4.21604 16.9583 3.82391 17.1208 3.5348 17.4099C3.24568 17.699 3.08325 18.0911 3.08325 18.5C3.08325 18.9089 3.24568 19.301 3.5348 19.5901C3.82391 19.8792 4.21604 20.0417 4.62492 20.0417H32.3749C32.7838 20.0417 33.1759 19.8792 33.465 19.5901C33.7542 19.301 33.9166 18.9089 33.9166 18.5C33.9166 18.0911 33.7542 17.699 33.465 17.4099C33.1759 17.1208 32.7838 16.9583 32.3749 16.9583Z" fill="black"/>
</g>
</g>
<defs>
<filter id="filter0_d_2130_6032" x="-0.916748" y="9.25" width="38.8333" height="26.5" filterUnits="userSpaceOnUse" color-interpolation-filters="sRGB">
<feFlood flood-opacity="0" result="BackgroundImageFix"/>
<feColorMatrix in="SourceAlpha" type="matrix" values="0 0 0 0 0 0 0 0 0 0 0 0 0 0 0 0 0 0 127 0" result="hardAlpha"/>
<feOffset dy="4"/>
<feGaussianBlur stdDeviation="2"/>
<feComposite in2="hardAlpha" operator="out"/>
<feColorMatrix type="matrix" values="0 0 0 0 0 0 0 0 0 0 0 0 0 0 0 0 0 0 0.25 0"/>
<feBlend mode="normal" in2="BackgroundImageFix" result="effect1_dropShadow_2130_6032"/>
<feBlend mode="normal" in="SourceGraphic" in2="effect1_dropShadow_2130_6032" result="shape"/>
</filter>
<clipPath id="clip0_2130_6032">
<rect width="37" height="37" fill="white"/>
</clipPath>
</defs>
</svg>
