<svg width="20" height="20" viewBox="0 0 20 20" fill="none" xmlns="http://www.w3.org/2000/svg">
<g id="User Interface / Link">
<path id="Vector" d="M6.66669 10.0002C6.66669 10.2212 6.75448 10.4331 6.91077 10.5894C7.06705 10.7457 7.27901 10.8335 7.50002 10.8335H12.5C12.721 10.8335 12.933 10.7457 13.0893 10.5894C13.2456 10.4331 13.3334 10.2212 13.3334 10.0002C13.3334 9.77915 13.2456 9.56719 13.0893 9.41091C12.933 9.25463 12.721 9.16683 12.5 9.16683H7.50002C7.27901 9.16683 7.06705 9.25463 6.91077 9.41091C6.75448 9.56719 6.66669 9.77915 6.66669 10.0002ZM8.33335 12.5002H5.83335C5.17031 12.5002 4.53443 12.2368 4.06559 11.7679C3.59675 11.2991 3.33335 10.6632 3.33335 10.0002C3.33335 9.33712 3.59675 8.70124 4.06559 8.2324C4.53443 7.76355 5.17031 7.50016 5.83335 7.50016H8.33335C8.55437 7.50016 8.76633 7.41237 8.92261 7.25609C9.07889 7.0998 9.16669 6.88784 9.16669 6.66683C9.16669 6.44582 9.07889 6.23385 8.92261 6.07757C8.76633 5.92129 8.55437 5.8335 8.33335 5.8335H5.83335C4.72829 5.8335 3.66848 6.27248 2.88708 7.05388C2.10567 7.83529 1.66669 8.89509 1.66669 10.0002C1.66669 11.1052 2.10567 12.165 2.88708 12.9464C3.66848 13.7278 4.72829 14.1668 5.83335 14.1668H8.33335C8.55437 14.1668 8.76633 14.079 8.92261 13.9228C9.07889 13.7665 9.16669 13.5545 9.16669 13.3335C9.16669 13.1125 9.07889 12.9005 8.92261 12.7442C8.76633 12.588 8.55437 12.5002 8.33335 12.5002ZM14.1667 5.8335H11.6667C11.4457 5.8335 11.2337 5.92129 11.0774 6.07757C10.9212 6.23385 10.8334 6.44582 10.8334 6.66683C10.8334 6.88784 10.9212 7.0998 11.0774 7.25609C11.2337 7.41237 11.4457 7.50016 11.6667 7.50016H14.1667C14.8297 7.50016 15.4656 7.76355 15.9345 8.2324C16.4033 8.70124 16.6667 9.33712 16.6667 10.0002C16.6667 10.6632 16.4033 11.2991 15.9345 11.7679C15.4656 12.2368 14.8297 12.5002 14.1667 12.5002H11.6667C11.4457 12.5002 11.2337 12.588 11.0774 12.7442C10.9212 12.9005 10.8334 13.1125 10.8334 13.3335C10.8334 13.5545 10.9212 13.7665 11.0774 13.9228C11.2337 14.079 11.4457 14.1668 11.6667 14.1668H14.1667C15.2718 14.1668 16.3316 13.7278 17.113 12.9464C17.8944 12.165 18.3334 11.1052 18.3334 10.0002C18.3334 8.89509 17.8944 7.83529 17.113 7.05388C16.3316 6.27248 15.2718 5.8335 14.1667 5.8335Z" fill="black"/>
</g>
</svg>
