<svg width="61" height="53" viewBox="0 0 61 53" fill="none" xmlns="http://www.w3.org/2000/svg">
<path d="M3 33.2H58C59.5464 33.2 60.8 34.4536 60.8 36V50C60.8 51.5464 59.5464 52.8 58 52.8H3C1.4536 52.8 0.2 51.5464 0.2 50V36C0.2 34.4536 1.4536 33.2 3 33.2Z" fill="white" stroke="#7E7E7E" stroke-width="0.4"/>
<path d="M10.35 46C10.1833 46 10.0533 45.9533 9.96 45.86C9.86667 45.7667 9.82 45.6367 9.82 45.47V39.44C9.82 39.2667 9.86333 39.1367 9.95 39.05C10.0433 38.9567 10.1733 38.91 10.34 38.91C10.5067 38.91 10.6333 38.9567 10.72 39.05C10.8133 39.1367 10.86 39.2667 10.86 39.44V45.11H13.96C14.1067 45.11 14.22 45.15 14.3 45.23C14.38 45.3033 14.42 45.41 14.42 45.55C14.42 45.69 14.38 45.8 14.3 45.88C14.22 45.96 14.1067 46 13.96 46H10.35ZM15.7276 46.06C15.5676 46.06 15.4442 46.0133 15.3576 45.92C15.2709 45.82 15.2276 45.6833 15.2276 45.51V41.61C15.2276 41.4367 15.2709 41.3033 15.3576 41.21C15.4442 41.1167 15.5676 41.07 15.7276 41.07C15.8876 41.07 16.0109 41.1167 16.0976 41.21C16.1909 41.3033 16.2376 41.4367 16.2376 41.61V45.51C16.2376 45.6833 16.1942 45.82 16.1076 45.92C16.0209 46.0133 15.8942 46.06 15.7276 46.06ZM15.7276 40.03C15.5276 40.03 15.3709 39.98 15.2576 39.88C15.1509 39.78 15.0976 39.64 15.0976 39.46C15.0976 39.2733 15.1509 39.1333 15.2576 39.04C15.3709 38.94 15.5276 38.89 15.7276 38.89C15.9276 38.89 16.0809 38.94 16.1876 39.04C16.3009 39.1333 16.3576 39.2733 16.3576 39.46C16.3576 39.64 16.3009 39.78 16.1876 39.88C16.0809 39.98 15.9276 40.03 15.7276 40.03ZM19.3692 46.09C19.0759 46.09 18.7726 46.0567 18.4592 45.99C18.1526 45.9233 17.8692 45.81 17.6092 45.65C17.5226 45.59 17.4626 45.5233 17.4292 45.45C17.3959 45.3767 17.3826 45.3033 17.3892 45.23C17.4026 45.15 17.4326 45.0833 17.4792 45.03C17.5326 44.97 17.5959 44.9333 17.6692 44.92C17.7492 44.9067 17.8326 44.9233 17.9192 44.97C18.1792 45.1167 18.4292 45.22 18.6692 45.28C18.9092 45.3333 19.1459 45.36 19.3792 45.36C19.7326 45.36 19.9992 45.2967 20.1792 45.17C20.3592 45.0433 20.4492 44.8733 20.4492 44.66C20.4492 44.4867 20.3892 44.3533 20.2692 44.26C20.1492 44.16 19.9692 44.0833 19.7292 44.03L18.7792 43.84C18.3659 43.7533 18.0526 43.6 17.8392 43.38C17.6259 43.16 17.5192 42.88 17.5192 42.54C17.5192 42.2333 17.6026 41.9667 17.7692 41.74C17.9359 41.5133 18.1692 41.34 18.4692 41.22C18.7692 41.0933 19.1159 41.03 19.5092 41.03C19.8026 41.03 20.0792 41.0667 20.3392 41.14C20.5992 41.2133 20.8392 41.3233 21.0592 41.47C21.1459 41.5167 21.2026 41.58 21.2292 41.66C21.2559 41.7333 21.2592 41.8067 21.2392 41.88C21.2259 41.9533 21.1926 42.02 21.1392 42.08C21.0859 42.1333 21.0192 42.1667 20.9392 42.18C20.8659 42.1867 20.7826 42.1667 20.6892 42.12C20.4892 41.9933 20.2892 41.9033 20.0892 41.85C19.8959 41.7967 19.7026 41.77 19.5092 41.77C19.1559 41.77 18.8892 41.8367 18.7092 41.97C18.5359 42.0967 18.4492 42.27 18.4492 42.49C18.4492 42.6567 18.5026 42.7933 18.6092 42.9C18.7159 43.0067 18.8826 43.0833 19.1092 43.13L20.0592 43.32C20.4926 43.4067 20.8192 43.5533 21.0392 43.76C21.2659 43.9667 21.3792 44.2467 21.3792 44.6C21.3792 45.06 21.1959 45.4233 20.8292 45.69C20.4626 45.9567 19.9759 46.09 19.3692 46.09ZM24.5341 46.09C24.1341 46.09 23.7975 46.02 23.5241 45.88C23.2508 45.74 23.0475 45.5333 22.9141 45.26C22.7808 44.9867 22.7141 44.6533 22.7141 44.26V41.9H22.1141C21.9808 41.9 21.8775 41.8667 21.8041 41.8C21.7308 41.7267 21.6941 41.63 21.6941 41.51C21.6941 41.3833 21.7308 41.2867 21.8041 41.22C21.8775 41.1533 21.9808 41.12 22.1141 41.12H22.7141V40.09C22.7141 39.9233 22.7575 39.7967 22.8441 39.71C22.9375 39.6233 23.0641 39.58 23.2241 39.58C23.3841 39.58 23.5075 39.6233 23.5941 39.71C23.6808 39.7967 23.7241 39.9233 23.7241 40.09V41.12H24.8941C25.0275 41.12 25.1308 41.1533 25.2041 41.22C25.2775 41.2867 25.3141 41.3833 25.3141 41.51C25.3141 41.63 25.2775 41.7267 25.2041 41.8C25.1308 41.8667 25.0275 41.9 24.8941 41.9H23.7241V44.18C23.7241 44.5333 23.7975 44.8 23.9441 44.98C24.0975 45.16 24.3441 45.25 24.6841 45.25C24.8041 45.25 24.9075 45.24 24.9941 45.22C25.0875 45.1933 25.1641 45.1767 25.2241 45.17C25.2975 45.17 25.3575 45.1967 25.4041 45.25C25.4508 45.2967 25.4741 45.39 25.4741 45.53C25.4741 45.63 25.4541 45.7233 25.4141 45.81C25.3808 45.8967 25.3175 45.9533 25.2241 45.98C25.1441 46.0067 25.0341 46.03 24.8941 46.05C24.7608 46.0767 24.6408 46.09 24.5341 46.09ZM31.5332 46.07C31.3865 46.07 31.2632 46.0367 31.1632 45.97C31.0699 45.8967 30.9932 45.79 30.9332 45.65L28.2432 39.56C28.1899 39.42 28.1765 39.3 28.2032 39.2C28.2299 39.1 28.2832 39.0233 28.3632 38.97C28.4499 38.91 28.5532 38.88 28.6732 38.88C28.8265 38.88 28.9432 38.9133 29.0232 38.98C29.1032 39.0467 29.1699 39.1467 29.2232 39.28L31.7432 45.12H31.3732L33.8732 39.27C33.9332 39.1433 34.0032 39.0467 34.0832 38.98C34.1699 38.9133 34.2865 38.88 34.4332 38.88C34.5532 38.88 34.6499 38.91 34.7232 38.97C34.8032 39.0233 34.8532 39.1 34.8732 39.2C34.8932 39.3 34.8732 39.42 34.8132 39.56L32.1332 45.65C32.0732 45.79 31.9965 45.8967 31.9032 45.97C31.8099 46.0367 31.6865 46.07 31.5332 46.07ZM36.5967 46.06C36.4367 46.06 36.3134 46.0133 36.2267 45.92C36.1401 45.82 36.0967 45.6833 36.0967 45.51V41.61C36.0967 41.4367 36.1401 41.3033 36.2267 41.21C36.3134 41.1167 36.4367 41.07 36.5967 41.07C36.7567 41.07 36.8801 41.1167 36.9667 41.21C37.0601 41.3033 37.1067 41.4367 37.1067 41.61V45.51C37.1067 45.6833 37.0634 45.82 36.9767 45.92C36.8901 46.0133 36.7634 46.06 36.5967 46.06ZM36.5967 40.03C36.3967 40.03 36.2401 39.98 36.1267 39.88C36.0201 39.78 35.9667 39.64 35.9667 39.46C35.9667 39.2733 36.0201 39.1333 36.1267 39.04C36.2401 38.94 36.3967 38.89 36.5967 38.89C36.7967 38.89 36.9501 38.94 37.0567 39.04C37.1701 39.1333 37.2267 39.2733 37.2267 39.46C37.2267 39.64 37.1701 39.78 37.0567 39.88C36.9501 39.98 36.7967 40.03 36.5967 40.03ZM40.8184 46.09C40.285 46.09 39.825 45.99 39.4384 45.79C39.0584 45.5833 38.7617 45.2933 38.5484 44.92C38.3417 44.54 38.2384 44.09 38.2384 43.57C38.2384 43.0633 38.3417 42.62 38.5484 42.24C38.755 41.86 39.0384 41.5633 39.3984 41.35C39.7584 41.1367 40.1684 41.03 40.6284 41.03C40.9684 41.03 41.2717 41.0867 41.5384 41.2C41.805 41.3067 42.0317 41.4667 42.2184 41.68C42.4117 41.8867 42.555 42.14 42.6484 42.44C42.7484 42.74 42.7984 43.0767 42.7984 43.45C42.7984 43.5633 42.765 43.65 42.6984 43.71C42.6317 43.7633 42.5317 43.79 42.3984 43.79H39.0384V43.17H42.1184L41.9484 43.31C41.9484 42.9767 41.8984 42.6933 41.7984 42.46C41.705 42.2267 41.5617 42.05 41.3684 41.93C41.1817 41.8033 40.9484 41.74 40.6684 41.74C40.355 41.74 40.0884 41.8133 39.8684 41.96C39.655 42.1067 39.4917 42.31 39.3784 42.57C39.265 42.83 39.2084 43.1333 39.2084 43.48V43.54C39.2084 44.1267 39.345 44.57 39.6184 44.87C39.8984 45.1633 40.3017 45.31 40.8284 45.31C41.0284 45.31 41.2384 45.2833 41.4584 45.23C41.685 45.1767 41.8984 45.0867 42.0984 44.96C42.2117 44.8933 42.3117 44.8633 42.3984 44.87C42.4917 44.8767 42.565 44.9067 42.6184 44.96C42.6784 45.0133 42.715 45.08 42.7284 45.16C42.7417 45.24 42.7284 45.3233 42.6884 45.41C42.6484 45.49 42.5784 45.5633 42.4784 45.63C42.2517 45.7833 41.9884 45.9 41.6884 45.98C41.3884 46.0533 41.0984 46.09 40.8184 46.09ZM45.6111 46.07C45.4711 46.07 45.3478 46.0367 45.2411 45.97C45.1411 45.8967 45.0611 45.7833 45.0011 45.63L43.5311 41.74C43.4778 41.6067 43.4611 41.49 43.4811 41.39C43.5011 41.2833 43.5511 41.2 43.6311 41.14C43.7178 41.08 43.8278 41.05 43.9611 41.05C44.0811 41.05 44.1778 41.08 44.2511 41.14C44.3311 41.1933 44.3978 41.3 44.4511 41.46L45.7611 45.15H45.5211L46.8811 41.42C46.9278 41.2933 46.9911 41.2 47.0711 41.14C47.1511 41.08 47.2544 41.05 47.3811 41.05C47.5078 41.05 47.6111 41.08 47.6911 41.14C47.7778 41.2 47.8411 41.2933 47.8811 41.42L49.2111 45.15H48.9911L50.3211 41.44C50.3744 41.2867 50.4411 41.1833 50.5211 41.13C50.6078 41.0767 50.7044 41.05 50.8111 41.05C50.9444 41.05 51.0444 41.0833 51.1111 41.15C51.1844 41.2167 51.2244 41.3033 51.2311 41.41C51.2444 41.51 51.2278 41.62 51.1811 41.74L49.7111 45.63C49.6511 45.7767 49.5678 45.8867 49.4611 45.96C49.3611 46.0333 49.2444 46.07 49.1111 46.07C48.9711 46.07 48.8478 46.0333 48.7411 45.96C48.6411 45.8867 48.5611 45.7767 48.5011 45.63L47.1011 41.84H47.6011L46.2111 45.63C46.1578 45.7767 46.0778 45.8867 45.9711 45.96C45.8711 46.0333 45.7511 46.07 45.6111 46.07Z" fill="black"/>
<g filter="url(#filter0_d_2130_3651)">
<circle cx="29.5" cy="13.5" r="13.5" fill="white"/>
<circle cx="29.5" cy="13.5" r="13" stroke="#D64E49"/>
</g>
<path d="M31 18H21C20.7348 18 20.4804 18.1054 20.2929 18.2929C20.1054 18.4804 20 18.7348 20 19C20 19.2652 20.1054 19.5196 20.2929 19.7071C20.4804 19.8946 20.7348 20 21 20H31C31.2652 20 31.5196 19.8946 31.7071 19.7071C31.8946 19.5196 32 19.2652 32 19C32 18.7348 31.8946 18.4804 31.7071 18.2929C31.5196 18.1054 31.2652 18 31 18ZM21 10H39C39.2652 10 39.5196 9.89464 39.7071 9.70711C39.8946 9.51957 40 9.26522 40 9C40 8.73478 39.8946 8.48043 39.7071 8.29289C39.5196 8.10536 39.2652 8 39 8H21C20.7348 8 20.4804 8.10536 20.2929 8.29289C20.1054 8.48043 20 8.73478 20 9C20 9.26522 20.1054 9.51957 20.2929 9.70711C20.4804 9.89464 20.7348 10 21 10V10ZM39 13H21C20.7348 13 20.4804 13.1054 20.2929 13.2929C20.1054 13.4804 20 13.7348 20 14C20 14.2652 20.1054 14.5196 20.2929 14.7071C20.4804 14.8946 20.7348 15 21 15H39C39.2652 15 39.5196 14.8946 39.7071 14.7071C39.8946 14.5196 40 14.2652 40 14C40 13.7348 39.8946 13.4804 39.7071 13.2929C39.5196 13.1054 39.2652 13 39 13Z" fill="#D64E49"/>
<defs>
<filter id="filter0_d_2130_3651" x="12" y="0" width="35" height="35" filterUnits="userSpaceOnUse" color-interpolation-filters="sRGB">
<feFlood flood-opacity="0" result="BackgroundImageFix"/>
<feColorMatrix in="SourceAlpha" type="matrix" values="0 0 0 0 0 0 0 0 0 0 0 0 0 0 0 0 0 0 127 0" result="hardAlpha"/>
<feOffset dy="4"/>
<feGaussianBlur stdDeviation="2"/>
<feComposite in2="hardAlpha" operator="out"/>
<feColorMatrix type="matrix" values="0 0 0 0 0 0 0 0 0 0 0 0 0 0 0 0 0 0 0.25 0"/>
<feBlend mode="normal" in2="BackgroundImageFix" result="effect1_dropShadow_2130_3651"/>
<feBlend mode="normal" in="SourceGraphic" in2="effect1_dropShadow_2130_3651" result="shape"/>
</filter>
</defs>
</svg>
