<svg width="24" height="23" viewBox="0 0 24 23" fill="none" xmlns="http://www.w3.org/2000/svg">
<circle cx="11.5" cy="11.5" r="11.5" fill="#EFEEEE"/>
<path d="M11.5 10C11.2033 10 10.9133 10.088 10.6666 10.2528C10.42 10.4176 10.2277 10.6519 10.1142 10.926C10.0006 11.2001 9.97094 11.5017 10.0288 11.7926C10.0867 12.0836 10.2296 12.3509 10.4393 12.5607C10.6491 12.7704 10.9164 12.9133 11.2074 12.9712C11.4983 13.0291 11.7999 12.9994 12.074 12.8858C12.3481 12.7723 12.5824 12.58 12.7472 12.3334C12.912 12.0867 13 11.7967 13 11.5C13 11.1022 12.842 10.7206 12.5607 10.4393C12.2794 10.158 11.8978 10 11.5 10ZM6.25 10C5.95333 10 5.66332 10.088 5.41665 10.2528C5.16997 10.4176 4.97771 10.6519 4.86418 10.926C4.75065 11.2001 4.72094 11.5017 4.77882 11.7926C4.8367 12.0836 4.97956 12.3509 5.18934 12.5607C5.39912 12.7704 5.66639 12.9133 5.95737 12.9712C6.24834 13.0291 6.54994 12.9994 6.82403 12.8858C7.09812 12.7723 7.33238 12.58 7.49721 12.3334C7.66203 12.0867 7.75 11.7967 7.75 11.5C7.75 11.1022 7.59197 10.7206 7.31066 10.4393C7.02936 10.158 6.64783 10 6.25 10ZM16.75 10C16.4533 10 16.1633 10.088 15.9166 10.2528C15.67 10.4176 15.4777 10.6519 15.3642 10.926C15.2506 11.2001 15.2209 11.5017 15.2788 11.7926C15.3367 12.0836 15.4796 12.3509 15.6893 12.5607C15.8991 12.7704 16.1664 12.9133 16.4574 12.9712C16.7483 13.0291 17.0499 12.9994 17.324 12.8858C17.5981 12.7723 17.8324 12.58 17.9972 12.3334C18.162 12.0867 18.25 11.7967 18.25 11.5C18.25 11.1022 18.092 10.7206 17.8107 10.4393C17.5294 10.158 17.1478 10 16.75 10Z" fill="black"/>
</svg>
