<svg width="31" height="31" viewBox="0 0 31 31" fill="none" xmlns="http://www.w3.org/2000/svg">
<circle cx="15.5" cy="15.5" r="15.35" fill="white" stroke="#7E7E7E" stroke-width="0.3"/>
<path d="M12.41 23C12.102 23 11.86 22.912 11.684 22.736C11.508 22.56 11.42 22.3253 11.42 22.032C11.42 21.724 11.508 21.4893 11.684 21.328C11.86 21.1667 12.102 21.086 12.41 21.086H15.094V9.382H16.238L13.026 11.428C12.7913 11.56 12.5713 11.6113 12.366 11.582C12.1753 11.5527 12.0067 11.472 11.86 11.34C11.728 11.208 11.6327 11.0467 11.574 10.856C11.53 10.6653 11.5447 10.4673 11.618 10.262C11.706 10.0567 11.86 9.888 12.08 9.756L15.116 7.842C15.3653 7.69533 15.6 7.578 15.82 7.49C16.0547 7.38733 16.2747 7.336 16.48 7.336C16.7293 7.336 16.9347 7.40933 17.096 7.556C17.272 7.688 17.36 7.91533 17.36 8.238V21.086H19.824C20.1467 21.086 20.396 21.1667 20.572 21.328C20.748 21.4893 20.836 21.724 20.836 22.032C20.836 22.34 20.748 22.582 20.572 22.758C20.396 22.9193 20.1467 23 19.824 23H12.41Z" fill="black"/>
</svg>
