<svg width="31" height="31" viewBox="0 0 31 31" fill="none" xmlns="http://www.w3.org/2000/svg">
<circle cx="15.5" cy="15.5" r="15.35" fill="white" stroke="#7E7E7E" stroke-width="0.3"/>
<path d="M20.623 25H9.98828V23.0986L14.0596 18.9736C14.8473 18.1715 15.4954 17.4805 16.0039 16.9004C16.5124 16.3132 16.8883 15.7581 17.1318 15.2354C17.3825 14.7126 17.5078 14.1432 17.5078 13.5273C17.5078 12.7682 17.2894 12.1953 16.8525 11.8086C16.4157 11.4147 15.8392 11.2178 15.123 11.2178C14.4427 11.2178 13.8125 11.3538 13.2324 11.626C12.6595 11.891 12.0651 12.2705 11.4492 12.7646L10.0635 11.0996C10.5003 10.7272 10.9658 10.387 11.46 10.0791C11.9613 9.77116 12.5199 9.52767 13.1357 9.34863C13.7516 9.16243 14.4535 9.06934 15.2412 9.06934C16.2367 9.06934 17.096 9.24837 17.8193 9.60645C18.5426 9.95736 19.0977 10.4479 19.4844 11.0781C19.8783 11.7083 20.0752 12.4424 20.0752 13.2803C20.0752 14.1253 19.9069 14.9059 19.5703 15.6221C19.2337 16.3382 18.7539 17.0472 18.1309 17.749C17.5078 18.4437 16.7666 19.1992 15.9072 20.0156L13.1895 22.6689V22.7871H20.623V25Z" fill="black"/>
</svg>
