<svg width="16" height="16" viewBox="0 0 16 16" fill="none" xmlns="http://www.w3.org/2000/svg">
<g id="User Interface / Pencil">
<path id="Vector" d="M14.6668 4.8266C14.6673 4.73886 14.6505 4.65188 14.6174 4.57066C14.5842 4.48943 14.5353 4.41556 14.4735 4.35326L11.6468 1.5266C11.5845 1.46481 11.5107 1.41593 11.4294 1.38275C11.3482 1.34957 11.2612 1.33276 11.1735 1.33326C11.0858 1.33276 10.9988 1.34957 10.9176 1.38275C10.8363 1.41593 10.7625 1.46481 10.7002 1.5266L8.81351 3.41326L1.52684 10.6999C1.46505 10.7622 1.41617 10.8361 1.38299 10.9173C1.34982 10.9985 1.333 11.0855 1.33351 11.1733V13.9999C1.33351 14.1767 1.40375 14.3463 1.52877 14.4713C1.65379 14.5964 1.82336 14.6666 2.00017 14.6666H4.82684C4.92013 14.6717 5.01344 14.6571 5.10072 14.6238C5.188 14.5905 5.26731 14.5392 5.33351 14.4733L12.5802 7.1866L14.4735 5.33326C14.5344 5.26865 14.5839 5.19428 14.6202 5.11326C14.6266 5.06012 14.6266 5.0064 14.6202 4.95326C14.6233 4.92223 14.6233 4.89096 14.6202 4.85993L14.6668 4.8266ZM4.55351 13.3333H2.66684V11.4466L9.28684 4.8266L11.1735 6.71326L4.55351 13.3333ZM12.1135 5.77326L10.2268 3.8866L11.1735 2.9466L13.0535 4.8266L12.1135 5.77326Z" fill="black"/>
</g>
</svg>
