<svg width="16" height="16" viewBox="0 0 16 16" fill="none" xmlns="http://www.w3.org/2000/svg">
<g id="Users / approve user">
<path id="Vector" d="M8.86683 8.14659C9.22255 7.83867 9.50786 7.45784 9.70341 7.02993C9.89896 6.60203 10.0002 6.13706 10.0002 5.66659C10.0002 4.78253 9.64897 3.93468 9.02385 3.30956C8.39873 2.68444 7.55088 2.33325 6.66683 2.33325C5.78277 2.33325 4.93493 2.68444 4.30981 3.30956C3.68469 3.93468 3.3335 4.78253 3.3335 5.66659C3.33349 6.13706 3.4347 6.60203 3.63025 7.02993C3.8258 7.45784 4.11111 7.83867 4.46683 8.14659C3.53359 8.56918 2.74181 9.25161 2.18615 10.1123C1.63049 10.973 1.33448 11.9755 1.3335 12.9999C1.3335 13.1767 1.40373 13.3463 1.52876 13.4713C1.65378 13.5963 1.82335 13.6666 2.00016 13.6666C2.17697 13.6666 2.34654 13.5963 2.47157 13.4713C2.59659 13.3463 2.66683 13.1767 2.66683 12.9999C2.66683 11.9391 3.08826 10.9216 3.8384 10.1715C4.58855 9.42135 5.60596 8.99992 6.66683 8.99992C7.7277 8.99992 8.74511 9.42135 9.49526 10.1715C10.2454 10.9216 10.6668 11.9391 10.6668 12.9999C10.6668 13.1767 10.7371 13.3463 10.8621 13.4713C10.9871 13.5963 11.1567 13.6666 11.3335 13.6666C11.5103 13.6666 11.6799 13.5963 11.8049 13.4713C11.9299 13.3463 12.0002 13.1767 12.0002 12.9999C11.9992 11.9755 11.7032 10.973 11.1475 10.1123C10.5919 9.25161 9.80007 8.56918 8.86683 8.14659ZM6.66683 7.66659C6.27127 7.66659 5.88459 7.54929 5.55569 7.32952C5.22679 7.10976 4.97045 6.7974 4.81907 6.43195C4.6677 6.0665 4.62809 5.66437 4.70526 5.2764C4.78243 4.88844 4.97291 4.53208 5.25262 4.25237C5.53232 3.97267 5.88869 3.78219 6.27665 3.70501C6.66461 3.62784 7.06674 3.66745 7.4322 3.81883C7.79765 3.9702 8.11001 4.22655 8.32977 4.55544C8.54953 4.88434 8.66683 5.27102 8.66683 5.66659C8.66683 6.19702 8.45612 6.70573 8.08104 7.0808C7.70597 7.45587 7.19726 7.66659 6.66683 7.66659ZM14.4735 6.08659C14.4115 6.0241 14.3378 5.9745 14.2565 5.94066C14.1753 5.90681 14.0882 5.88939 14.0002 5.88939C13.9122 5.88939 13.825 5.90681 13.7438 5.94066C13.6625 5.9745 13.5888 6.0241 13.5268 6.08659L12.1935 7.41992L11.7802 6.99992C11.7182 6.93743 11.6445 6.88784 11.5632 6.85399C11.482 6.82015 11.3948 6.80272 11.3068 6.80272C11.2188 6.80272 11.1317 6.82015 11.0504 6.85399C10.9692 6.88784 10.8955 6.93743 10.8335 6.99992C10.7093 7.12483 10.6396 7.2938 10.6396 7.46992C10.6396 7.64604 10.7093 7.81501 10.8335 7.93992L11.7268 8.83325C11.8517 8.95742 12.0207 9.02711 12.1968 9.02711C12.373 9.02711 12.5419 8.95742 12.6668 8.83325L14.4468 7.05325C14.5141 6.9928 14.5684 6.91928 14.6064 6.83717C14.6444 6.75506 14.6653 6.66608 14.6678 6.57565C14.6703 6.48521 14.6543 6.39521 14.6209 6.31114C14.5875 6.22706 14.5374 6.15066 14.4735 6.08659Z" fill="black"/>
</g>
</svg>
