<svg width="31" height="31" viewBox="0 0 31 31" fill="none" xmlns="http://www.w3.org/2000/svg">
<circle cx="15.5" cy="15.5" r="15.35" fill="#D64E49" stroke="#7E7E7E" stroke-width="0.3"/>
<path d="M11.882 23C11.486 23 11.2 22.912 11.024 22.736C10.848 22.5453 10.76 22.2887 10.76 21.966C10.76 21.7607 10.8113 21.5627 10.914 21.372C11.0167 21.1813 11.1633 20.9833 11.354 20.778L16.04 15.762C16.7587 14.9993 17.272 14.3027 17.58 13.672C17.9027 13.0267 18.064 12.3813 18.064 11.736C18.064 10.9147 17.8147 10.2913 17.316 9.866C16.8173 9.44067 16.084 9.228 15.116 9.228C14.5293 9.228 13.9647 9.316 13.422 9.492C12.8793 9.668 12.3367 9.954 11.794 10.35C11.574 10.4967 11.3687 10.5627 11.178 10.548C10.9873 10.5333 10.8187 10.46 10.672 10.328C10.54 10.196 10.452 10.0347 10.408 9.844C10.364 9.65333 10.3713 9.45533 10.43 9.25C10.4887 9.04467 10.628 8.86867 10.848 8.722C11.4493 8.26733 12.146 7.91533 12.938 7.666C13.73 7.41667 14.5367 7.292 15.358 7.292C16.4287 7.292 17.3307 7.46067 18.064 7.798C18.812 8.12067 19.3767 8.59733 19.758 9.228C20.1393 9.85867 20.33 10.6287 20.33 11.538C20.33 12.154 20.2273 12.7553 20.022 13.342C19.8313 13.9287 19.5307 14.53 19.12 15.146C18.724 15.7473 18.2033 16.3853 17.558 17.06L13.114 21.724V21.086H20.11C20.4327 21.086 20.682 21.1667 20.858 21.328C21.034 21.4893 21.122 21.724 21.122 22.032C21.122 22.34 21.034 22.582 20.858 22.758C20.682 22.9193 20.4327 23 20.11 23H11.882Z" fill="white"/>
</svg>
