<svg width="24" height="24" viewBox="0 0 24 24" fill="none" xmlns="http://www.w3.org/2000/svg">
<g id="Education / book">
<path id="Vector" d="M17 2.00002L5 2C4.73478 2 4.48043 2.10536 4.29289 2.29289C4.10536 2.48043 4 2.73478 4 3L3.99997 21C3.99997 21.2652 4.10532 21.5196 4.29286 21.7071C4.48039 21.8946 4.73475 22 4.99996 22L17 22C17.7956 22 18.5587 21.684 19.1213 21.1213C19.6839 20.5587 20 19.7957 20 19L20 5.00003C20 4.20438 19.6839 3.44132 19.1213 2.87871C18.5587 2.3161 17.7956 2.00002 17 2.00002ZM7.99997 20L5.99997 20L6 4L8 4.00001L7.99997 20ZM18 19C18 19.2652 17.8946 19.5196 17.7071 19.7071C17.5195 19.8947 17.2652 20 17 20L9.99997 20L10 4.00001L17 4.00002C17.2652 4.00002 17.5196 4.10538 17.7071 4.29292C17.8946 4.48045 18 4.73481 18 5.00003L18 19Z" fill="white"/>
</g>
</svg>
