<svg width="85" height="44" viewBox="0 0 85 44" fill="none" xmlns="http://www.w3.org/2000/svg">
<g filter="url(#filter0_d_2051_5446)">
<g clip-path="url(#clip0_2051_5446)">
<rect x="4" width="77" height="36" rx="18" fill="#576CBC"/>
<path d="M43.5 36L21.4985 36C11.5582 36 3.5 27.9418 3.5 18.0015C3.5 8.05956 11.5596 0 21.5015 0L43.5 0L43.5 36Z" fill="white"/>
<path d="M43.5 0H63.5015C73.4418 0 81.5 8.05819 81.5 17.9985C81.5 27.9404 73.4404 36 63.4985 36H43.5V0Z" fill="#D64E49"/>
<path d="M69.2099 13.2101C69.117 13.1164 69.0064 13.042 68.8845 12.9912C68.7627 12.9404 68.632 12.9143 68.4999 12.9143C68.3679 12.9143 68.2372 12.9404 68.1154 12.9912C67.9935 13.042 67.8829 13.1164 67.79 13.2101L60.34 20.6701L57.2099 17.5301C57.1134 17.4369 56.9995 17.3636 56.8746 17.3143C56.7498 17.2651 56.6165 17.241 56.4823 17.2433C56.3481 17.2457 56.2157 17.2744 56.0926 17.3279C55.9695 17.3814 55.8582 17.4586 55.7649 17.5551C55.6717 17.6516 55.5984 17.7656 55.5492 17.8904C55.5 18.0153 55.4759 18.1486 55.4782 18.2828C55.4805 18.417 55.5092 18.5494 55.5627 18.6725C55.6162 18.7955 55.6934 18.9069 55.7899 19.0001L59.63 22.8401C59.7229 22.9338 59.8335 23.0082 59.9554 23.059C60.0772 23.1098 60.2079 23.1359 60.34 23.1359C60.472 23.1359 60.6027 23.1098 60.7245 23.059C60.8464 23.0082 60.957 22.9338 61.05 22.8401L69.2099 14.6801C69.3115 14.5865 69.3925 14.4728 69.4479 14.3463C69.5033 14.2198 69.5319 14.0832 69.5319 13.9451C69.5319 13.807 69.5033 13.6704 69.4479 13.5439C69.3925 13.4174 69.3115 13.3037 69.2099 13.2101Z" fill="white"/>
</g>
</g>
<defs>
<filter id="filter0_d_2051_5446" x="0" y="0" width="85" height="44" filterUnits="userSpaceOnUse" color-interpolation-filters="sRGB">
<feFlood flood-opacity="0" result="BackgroundImageFix"/>
<feColorMatrix in="SourceAlpha" type="matrix" values="0 0 0 0 0 0 0 0 0 0 0 0 0 0 0 0 0 0 127 0" result="hardAlpha"/>
<feOffset dy="4"/>
<feGaussianBlur stdDeviation="2"/>
<feComposite in2="hardAlpha" operator="out"/>
<feColorMatrix type="matrix" values="0 0 0 0 0 0 0 0 0 0 0 0 0 0 0 0 0 0 0.25 0"/>
<feBlend mode="normal" in2="BackgroundImageFix" result="effect1_dropShadow_2051_5446"/>
<feBlend mode="normal" in="SourceGraphic" in2="effect1_dropShadow_2051_5446" result="shape"/>
</filter>
<clipPath id="clip0_2051_5446">
<rect x="4" width="77" height="36" rx="18" fill="white"/>
</clipPath>
</defs>
</svg>
