<svg width="25" height="25" viewBox="0 0 25 25" fill="none" xmlns="http://www.w3.org/2000/svg">
<g id="Education / notes">
<path id="Vector" d="M16.6 14.5252H8.30005C8.02489 14.5252 7.76099 14.6345 7.56643 14.8291C7.37186 15.0236 7.26255 15.2875 7.26255 15.5627C7.26255 15.8379 7.37186 16.1017 7.56643 16.2963C7.76099 16.4909 8.02489 16.6002 8.30005 16.6002H16.6C16.8752 16.6002 17.1391 16.4909 17.3337 16.2963C17.5282 16.1017 17.6375 15.8379 17.6375 15.5627C17.6375 15.2875 17.5282 15.0236 17.3337 14.8291C17.1391 14.6345 16.8752 14.5252 16.6 14.5252ZM16.6 10.3752H10.375C10.0999 10.3752 9.83599 10.4845 9.64143 10.6791C9.44686 10.8736 9.33755 11.1375 9.33755 11.4127C9.33755 11.6879 9.44686 11.9517 9.64143 12.1463C9.83599 12.3409 10.0999 12.4502 10.375 12.4502H16.6C16.8752 12.4502 17.1391 12.3409 17.3337 12.1463C17.5282 11.9517 17.6375 11.6879 17.6375 11.4127C17.6375 11.1375 17.5282 10.8736 17.3337 10.6791C17.1391 10.4845 16.8752 10.3752 16.6 10.3752ZM20.75 4.1502H17.6375V3.1127C17.6375 2.83753 17.5282 2.57364 17.3337 2.37907C17.1391 2.1845 16.8752 2.0752 16.6 2.0752C16.3249 2.0752 16.061 2.1845 15.8664 2.37907C15.6719 2.57364 15.5625 2.83753 15.5625 3.1127V4.1502H13.4875V3.1127C13.4875 2.83753 13.3782 2.57364 13.1837 2.37907C12.9891 2.1845 12.7252 2.0752 12.45 2.0752C12.1749 2.0752 11.911 2.1845 11.7164 2.37907C11.5219 2.57364 11.4125 2.83753 11.4125 3.1127V4.1502H9.33755V3.1127C9.33755 2.83753 9.22824 2.57364 9.03367 2.37907C8.8391 2.1845 8.57521 2.0752 8.30005 2.0752C8.02489 2.0752 7.76099 2.1845 7.56643 2.37907C7.37186 2.57364 7.26255 2.83753 7.26255 3.1127V4.1502H4.15005C3.87489 4.1502 3.61099 4.2595 3.41643 4.45407C3.22186 4.64864 3.11255 4.91253 3.11255 5.1877V19.7127C3.11255 20.5382 3.44047 21.3299 4.02418 21.9136C4.60789 22.4973 5.39956 22.8252 6.22505 22.8252H18.675C19.5005 22.8252 20.2922 22.4973 20.8759 21.9136C21.4596 21.3299 21.7875 20.5382 21.7875 19.7127V5.1877C21.7875 4.91253 21.6782 4.64864 21.4837 4.45407C21.2891 4.2595 21.0252 4.1502 20.75 4.1502ZM19.7125 19.7127C19.7125 19.9879 19.6032 20.2517 19.4087 20.4463C19.2141 20.6409 18.9502 20.7502 18.675 20.7502H6.22505C5.94989 20.7502 5.68599 20.6409 5.49143 20.4463C5.29686 20.2517 5.18755 19.9879 5.18755 19.7127V6.22519H7.26255V7.26269C7.26255 7.53786 7.37186 7.80175 7.56643 7.99632C7.76099 8.19089 8.02489 8.30019 8.30005 8.30019C8.57521 8.30019 8.8391 8.19089 9.03367 7.99632C9.22824 7.80175 9.33755 7.53786 9.33755 7.26269V6.22519H11.4125V7.26269C11.4125 7.53786 11.5219 7.80175 11.7164 7.99632C11.911 8.19089 12.1749 8.30019 12.45 8.30019C12.7252 8.30019 12.9891 8.19089 13.1837 7.99632C13.3782 7.80175 13.4875 7.53786 13.4875 7.26269V6.22519H15.5625V7.26269C15.5625 7.53786 15.6719 7.80175 15.8664 7.99632C16.061 8.19089 16.3249 8.30019 16.6 8.30019C16.8752 8.30019 17.1391 8.19089 17.3337 7.99632C17.5282 7.80175 17.6375 7.53786 17.6375 7.26269V6.22519H19.7125V19.7127Z" fill="white"/>
</g>
</svg>
